<svg width="3399" height="1888" viewBox="0 0 3399 1888" fill="none" xmlns="http://www.w3.org/2000/svg">
<path d="M3211.95 113.181C3254.53 113.181 3355.38 111.802 3398.26 108.237V1888H0.431885V89.1145L89.1479 105.159C110.588 112.29 175.646 119.064 264.362 89.1145C353.078 59.1647 407.786 80.2009 424.05 94.4627C488.369 90.8972 638.3 85.9056 723.467 94.4627C808.634 103.02 889.07 83.7663 918.642 73.07C945.257 65.939 1014.9 55.9558 1080.55 73.07C1146.2 90.1842 1230.63 94.4627 1264.63 94.4627C1447.39 64.5129 1518.21 67.7218 1530.78 73.07C1558.88 83.7663 1627.48 100.881 1677.16 83.7663C1726.84 66.6521 1822.07 64.1563 1863.47 65.0477C1910.78 69.5045 2021.38 73.07 2085.26 51.6772C2149.13 30.2845 2205.02 60.5908 2224.98 78.4181C2233.86 107.833 2288.86 146.34 2437.9 65.0477C2586.95 -16.2448 2649.34 -4.47874 2661.91 11.5658C2698.88 49.0031 2779.9 115.855 2808.29 83.7663C2836.68 51.6772 2889.61 57.9168 2912.53 65.0477C2956.15 86.4404 3054.03 123.878 3096.62 102.485C3139.2 81.0922 3191.25 100.702 3211.95 113.181Z" fill="#352116"/>
<path d="M0.607178 133.123C20.5642 125.105 71.7396 113.881 89.4792 133.123C97.6098 143.145 105.719 160.783 91.5269 175.215C73.7873 193.254 44.9605 223.32 33.8732 221.316C25.0035 219.712 7.25952 220.647 0.607178 221.316V133.123Z" fill="#462515"/>
<path d="M111.697 131.119C108.741 149.826 109.267 183.633 135.876 193.254C169.138 205.281 197.964 243.364 277.793 171.206C291.097 157.481 312.385 127.041 291.097 115.083C269.81 103.126 236.4 115.446 222.356 123.101C204.617 126.442 169.138 131.118 169.138 123.101C169.138 113.079 109.48 117.088 111.697 131.119Z" fill="#4E3225"/>
<path d="M379.795 115.083C352.447 106.398 299.967 100.652 308.837 147.154C299.228 162.521 288.436 198.466 322.142 219.311C364.273 245.368 492.885 331.557 519.494 251.381C540.782 187.241 556.452 167.197 561.626 165.193C582.322 135.795 607.305 78.2027 541.669 83.0132C476.032 87.8238 427.101 102.389 410.839 109.07L379.795 115.083Z" fill="#3C291F"/>
<path d="M2.82911 267.416C12.438 260.067 53.3869 246.571 140.311 251.381C155.094 244.032 195.747 229.734 240.096 231.338C284.445 232.941 203.878 296.146 158.05 327.548C138.093 359.618 79.1093 419.749 2.82911 403.714V267.416Z" fill="#694533"/>
<path d="M180.225 345.587C209.052 362.29 271.584 401.309 291.097 423.758C310.611 446.207 424.883 458.501 479.58 461.841C492.146 413.736 500.868 315.121 435.231 305.5C369.595 295.879 344.316 270.757 339.881 259.399C327.316 242.028 297.75 219.311 280.01 267.416C269.662 280.111 244.974 305.5 229.009 305.5C209.052 305.5 166.92 337.713 180.225 345.587Z" fill="#5C463C"/>
<path d="M2.82911 441.798C10.2206 444.47 38.3083 442.599 91.527 413.736C144.746 384.873 172.833 415.072 180.225 433.78C183.921 461.173 189.095 518.365 180.225 527.986C171.355 537.607 157.311 557.384 151.398 566.069H2.82911V441.798Z" fill="#472312"/>
<path d="M215.704 461.841C206.834 482.553 182.442 529.991 202.399 566.069C222.356 602.148 384.849 583.172 501.755 594.131C535.016 554.043 475.589 498.722 370.925 485.894C329.431 463.178 240.294 426.564 215.704 461.841Z" fill="#25130A"/>
<path d="M530.582 289.465C512.842 323.539 484.459 415.741 512.842 511.951C515.799 524.645 542.112 531.193 623.714 455.828C705.316 380.463 747.891 387.011 758.979 399.705C787.805 408.391 846.346 412.133 849.894 357.614C854.329 289.464 854.329 293.474 803.328 305.5C752.326 317.526 719.065 333.561 685.803 319.53C652.541 305.5 632.584 281.447 590.453 293.473C548.321 305.5 537.234 289.465 530.582 289.465Z" fill="#604132"/>
<path d="M643.671 279.443C591.931 236.014 516.39 149.559 628.149 151.162C739.909 152.766 758.979 146.485 754.544 143.145C782.631 130.45 843.685 115.484 863.199 157.176C882.712 198.867 822.545 254.722 790.023 277.438C772.283 282.783 734.143 290.266 723.499 277.438C712.856 264.61 693.933 282.783 685.803 293.473C667.324 293.473 633.028 290.667 643.671 279.443Z" fill="#604C42"/>
<path d="M579.413 616.402C543.933 614.398 587.792 533.999 612.627 517.964C637.463 501.929 639.236 480.549 637.019 471.863C637.019 461.173 646.776 443 685.803 455.828C724.83 468.656 765.631 439.793 781.153 423.758C789.284 417.745 819.737 409.326 876.503 423.758C947.462 441.797 923.952 503.033 863.199 505.938C800.004 508.959 849.894 582.499 754.544 588.512L727.934 588.118L579.413 616.402Z" fill="#431F0D"/>
<path d="M876.503 357.614C878.721 340.91 902.669 301.892 980.723 279.443C1014.72 247.373 1095.14 196.862 1144.81 251.381C1194.49 305.901 1224.64 284.788 1233.51 267.416C1248.3 252.718 1276.97 239.355 1273.43 303.495C1269.88 367.636 1222.43 435.784 1199.14 461.841C1174.38 462.509 1077.17 495.515 1023.95 477.877C957.424 455.828 865.416 369.64 876.503 357.614Z" fill="#766E6B"/>
<path d="M887.591 279.443C892.995 253.542 903.222 190.824 900.895 147.154C898.569 103.484 1024.1 82.1887 1087.16 77C1118.94 81.0088 1179.41 96.6431 1166.99 127.11C1154.57 157.576 1126.34 150.494 1113.77 143.145C1104.16 145.817 1087.16 155.572 1096.03 173.211C1104.9 190.849 1022.85 232.674 980.723 251.381C950.418 276.77 889.365 317.927 887.591 279.443Z" fill="#261208"/>
<path d="M1122.64 183.232C1140.38 175.883 1176.3 156.374 1178.08 137.132C1179.85 117.89 1206.9 103.725 1220.21 99.0484C1235.73 98.3803 1263.23 112.277 1249.03 173.211C1234.84 234.144 1200.25 237.351 1184.73 231.338C1166.25 224.656 1127.96 205.682 1122.64 183.232Z" fill="#40281D"/>
<path d="M1268.99 191.25C1274.17 219.311 1294.71 272.628 1335.51 261.403C1376.32 250.179 1424.95 221.984 1444.17 209.289C1411.65 186.573 1331.08 151.162 1268.99 191.25Z" fill="#5F3724"/>
<path d="M1300.04 345.587C1314.82 367.635 1356.36 417.745 1404.26 441.798C1452.15 465.85 1518.82 461.173 1546.17 455.828C1580.91 462.509 1649.06 471.863 1643.74 455.828C1637.09 435.784 1597.17 392.668 1597.17 303.495C1597.17 232.157 1546.91 210.967 1521.78 209.289C1485.56 209.289 1400.26 225.324 1348.82 289.465C1322.3 295.478 1275.42 315.121 1300.04 345.587Z" fill="#3C2B23"/>
<path d="M1220.21 485.894C1217.99 477.208 1218.88 456.229 1240.16 441.798C1261.45 427.366 1271.21 407.723 1273.43 399.705C1283.04 391.688 1308.91 385.274 1335.51 423.758C1362.12 462.242 1401.3 481.217 1417.56 485.894C1436.78 497.92 1468.12 524.378 1439.73 533.999C1411.35 543.62 1361.39 555.379 1339.95 560.056C1307.06 558.72 1237.06 542.017 1220.21 485.894Z" fill="#401E0E"/>
<path d="M1266.77 123.101C1294.12 105.73 1388.73 76.5993 1548.39 99.0484C1583.13 105.73 1631.32 125.907 1546.17 153.167C1461.02 180.426 1419.04 175.215 1408.69 169.202C1389.47 159.848 1339.95 143.546 1295.6 153.167C1251.25 162.788 1257.9 137.132 1266.77 123.101Z" fill="#5F4132"/>
<path d="M1583.87 173.211C1609 139.804 1670.79 82.6124 1716.92 121.097C1763.04 159.581 1743.53 249.377 1728 289.465C1731.7 318.194 1746.63 387.679 1776.79 435.784C1806.94 483.89 1733.18 462.509 1692.52 445.806C1670.35 431.107 1625.11 390.485 1621.57 345.587C1617.13 289.464 1617.13 245.368 1606.04 227.329C1594.96 209.289 1572.78 186.672 1583.87 173.211Z" fill="#4F3021"/>
<path d="M1861.05 367.636C1831.48 352.937 1767.47 386.076 1810.05 259.399L1783.44 165.193C1794.53 159.18 1829.12 94.6386 1905.4 109.07C1981.68 123.502 2053.97 165.193 2133.8 157.176C2175.93 153.167 2278.37 128.713 2218.06 191.25C2157.74 253.787 2187.75 274.098 2144.88 305.5C2073.93 286.792 1919.59 276.236 1861.05 367.636Z" fill="#623017"/>
<path d="M1473 560.056C1455.23 489.847 1484.97 505.136 1546.17 485.894C1552.09 489.903 1570.56 497.119 1597.17 493.912C1617.87 495.916 1661.04 495.515 1668.13 477.877C1675.23 460.238 1690.31 483.89 1696.96 497.92C1705.09 509.947 1727.56 533.999 1752.4 533.999C1777.23 533.999 1771.61 551.371 1765.7 560.056C1658.96 600.893 1490.77 630.265 1473 560.056Z" fill="#553C2F"/>
<path d="M1810.05 548.03C1821.88 542.685 1806.94 486.295 1830.01 455.828C1858.83 417.745 1869.92 377.657 1918.7 377.657C1957.73 377.657 1989.66 364.295 2000.75 357.614C2013.31 352.937 2035.78 354.807 2025.14 399.705C2035.49 400.374 2013.17 454.626 2000.75 497.92C1988.33 541.215 2025.61 590.469 2018.96 626.548C2012.31 662.627 2007.4 642.236 1929.79 588.118C1852.18 533.999 1820.69 584.752 1810.05 548.03Z" fill="#27150C"/>
<path d="M2056.19 560.056C2039.92 546.694 2020.71 511.55 2073.92 477.877C2059.88 447.811 2038 387.679 2062.84 387.679C2093.88 387.679 2124.93 336.19 2167.06 345.587C2209.19 354.984 2209.19 453.824 2195.88 493.912C2185.24 525.982 2159.45 486.883 2182.58 560.056C2205.71 633.229 2062.82 578.542 2056.19 560.056Z" fill="#513E35"/>
<path d="M2195.88 315.522C2239.49 298.15 2325.83 256.192 2322.28 227.329C2318.73 198.466 2342.98 238.019 2355.54 261.403C2404.32 268.085 2503.22 294.275 2508.54 345.587C2513.87 396.899 2500.41 460.505 2493.02 485.894C2436.85 475.204 2317.84 443 2291.23 399.705C2257.97 345.587 2187.01 382.379 2195.88 315.522Z" fill="#625A56"/>
<path d="M2364.41 133.123C2342.98 153.167 2311.19 200.069 2355.54 227.329C2410.98 261.403 2541.81 275.434 2570.63 209.289C2599.46 143.145 2586.16 141.141 2526.28 145.149C2466.41 149.158 2373.28 157.175 2364.41 133.123Z" fill="#6B4430"/>
<path d="M2548.46 279.443C2537.37 290.801 2517.41 333.561 2526.28 413.736C2512.24 467.186 2504.55 552.039 2586.16 463.846C2667.76 375.653 2704.42 384.338 2712.55 399.705C2746.55 410.395 2823.42 419.749 2858.9 371.644C2894.38 323.539 2881.08 296.814 2869.99 289.465C2847.07 292.137 2793.26 301.09 2761.33 315.522C2729.4 329.953 2684.46 310.845 2665.98 299.487C2657.85 290.801 2633.61 276.637 2601.68 289.465C2561.76 305.5 2570.63 269.421 2548.46 279.443Z" fill="#3D1F11"/>
<path d="M2222.49 560.056C2229.89 542.017 2243.78 497.119 2240.23 461.841C2236.69 426.564 2336.32 463.178 2386.58 485.894C2429.46 501.929 2513.87 539.211 2508.54 560.056C2332.05 603.06 2227.48 630.891 2222.49 560.056Z" fill="#4E2E1E"/>
<path d="M2541.81 594.131C2538.11 576.759 2557.33 503.533 2601.68 485.894C2646.03 468.255 2668.94 451.819 2674.85 445.806C2703.68 439.125 2755.12 432.978 2730.29 461.841C2705.45 490.704 2682.98 521.973 2674.85 533.999C2669.68 542.685 2652.68 589.32 2626.07 594.131C2599.46 598.941 2553.63 596.803 2541.81 594.131Z" fill="#45342C"/>
<path d="M2705.9 293.473C2645.29 259.399 2552.45 178.422 2665.98 127.11C2694.07 129.782 2757.79 131.92 2787.94 119.092C2825.64 103.057 2909.9 111.075 2896.6 145.149C2883.29 179.224 2883.29 267.416 2787.94 269.421C2711.66 271.024 2701.46 286.124 2705.9 293.473Z" fill="#442B1F"/>
<path d="M2743.59 469.859C2737.68 472.531 2729.4 481.084 2743.59 493.912C2757.79 506.74 2804.2 531.327 2825.64 542.017C2844.86 542.017 2886.84 534.801 2901.03 505.938C2915.22 477.075 2957.21 469.859 2976.43 469.859C2991.21 461.841 3003.48 440.595 2934.29 419.749C2865.11 398.904 2838.94 411.064 2834.51 419.749C2821.94 421.086 2791.49 423.758 2770.2 423.758C2748.92 423.758 2743.59 454.492 2743.59 469.859Z" fill="#51392D"/>
<path d="M2688.16 562.061C2696.29 555.379 2720.09 543.219 2750.25 548.03C2780.4 552.84 2850.03 546.026 2807.9 562.061C2765.77 578.096 2684.1 629.32 2688.16 562.061Z" fill="#4E2C1B"/>
<path d="M3282.43 387.679C3304.61 354.941 3346.3 280.245 3335.65 243.364C3325.01 206.483 3288.35 245.368 3271.35 269.421C3253.61 280.111 3209.7 293.473 3176 261.403C3142.29 229.333 3068.82 253.386 3036.3 269.421C3016.89 286.792 2968.44 321.535 2929.86 321.535C2891.28 321.535 2894.57 352.269 2901.03 367.636C2920.25 382.334 2968.89 414.137 3009.69 423.758C3050.49 433.379 3159.74 454.492 3209.26 463.846C3223.3 465.85 3257.6 453.423 3282.43 387.679Z" fill="#2D160B"/>
<path d="M2903.25 261.403C2913.6 237.004 2933.41 179.593 2929.86 145.149C2926.31 110.705 2994.9 97.391 3029.64 95.0395C3062.17 91.6989 3132.98 92.6343 3156.04 123.101C3179.1 153.568 3073.99 215.971 3018.56 243.364C2997.86 268.085 2951.15 312.716 2929.86 293.473C2903.25 269.421 2890.72 295.478 2903.25 261.403Z" fill="#7D5C4C"/>
<path d="M3136.08 203.276C3163.43 231.338 3226.55 280.645 3260.26 253.386C3293.96 226.126 3302.39 184.569 3302.39 167.197C3315.6 145.817 3323.01 107.868 3246.95 127.11C3170.9 146.352 3157.61 167.197 3160.47 175.215C3145.69 178.43 3120.12 188.543 3136.08 203.276Z" fill="#533D32"/>
<path d="M3397.74 115.083C3364.48 112.411 3303.72 120.696 3344.52 175.215C3385.32 229.734 3397.74 228.665 3397.74 221.316V115.083Z" fill="#6C5448"/>
<path d="M3397.74 443.802C3380.74 440.461 3338.31 428.168 3313.48 405.719C3288.64 383.269 3267.65 435.116 3260.26 463.846C3243.26 465.182 3215.02 472.665 3238.08 491.907C3266.91 515.96 3293.52 550.034 3397.74 538.008V443.802Z" fill="#634131"/>
<path d="M2901.03 560.056C2905.47 546.026 2941.83 479.48 3007.47 485.894C3073.11 492.308 3083.6 483.222 3080.65 477.877C3096.91 471.195 3138.74 463.445 3176 485.894C3222.56 513.955 3255.82 546.026 3251.39 560.056C3217.62 572.58 3211.48 600.144 3164.91 592.126C3118.34 584.109 2949.82 584.109 2927.64 588.118C2905.47 592.126 2896.6 574.087 2901.03 560.056Z" fill="#88695A"/>
<path d="M3397.74 401.71V337.57V273.43C3395.02 278.492 3371.72 285.55 3344.52 321.535C3306.65 371.644 3362.26 393.024 3397.74 401.71Z" fill="#775747"/>
<path d="M3398.43 1073.39C3378.47 1081.41 3327.3 1092.64 3309.56 1073.39C3301.43 1063.37 3293.32 1045.73 3307.51 1031.3C3325.25 1013.26 3354.08 983.197 3365.17 985.201C3374.04 986.805 3391.78 985.87 3398.43 985.201V1073.39Z" fill="#462515"/>
<path d="M3287.34 1075.4C3290.3 1056.69 3289.77 1022.88 3263.16 1013.26C3229.9 1001.24 3201.07 963.153 3121.25 1035.31C3107.94 1049.04 3086.65 1079.48 3107.94 1091.43C3129.23 1103.39 3162.64 1091.07 3176.68 1083.42C3194.42 1080.08 3229.9 1075.4 3229.9 1083.42C3229.9 1093.44 3289.56 1089.43 3287.34 1075.4Z" fill="#4E3225"/>
<path d="M3019.24 1091.43C3046.59 1100.12 3099.07 1105.87 3090.2 1059.36C3099.81 1044 3110.6 1008.05 3076.9 987.206C3034.77 961.149 2906.15 874.96 2879.54 955.136C2858.26 1019.28 2842.59 1039.32 2837.41 1041.32C2816.72 1070.72 2791.73 1128.31 2857.37 1123.5C2923.01 1118.69 2971.94 1104.13 2988.2 1097.45L3019.24 1091.43Z" fill="#7D7672"/>
<path d="M3396.21 939.1C3386.6 946.45 3345.65 959.946 3258.73 955.136C3243.95 962.485 3203.29 976.783 3158.94 975.179C3114.59 973.576 3195.16 910.371 3240.99 878.969C3260.95 846.899 3319.93 786.767 3396.21 802.802V939.1Z" fill="#694533"/>
<path d="M3218.81 860.93C3189.99 844.226 3127.46 805.207 3107.94 782.758C3088.43 760.309 2974.16 748.016 2919.46 744.675C2906.89 792.78 2898.17 891.396 2963.81 901.017C3029.44 910.638 3054.72 935.76 3059.16 947.118C3071.72 964.489 3101.29 987.206 3119.03 939.1C3129.38 926.406 3154.06 901.017 3170.03 901.017C3189.99 901.017 3232.12 868.804 3218.81 860.93Z" fill="#5C463C"/>
<path d="M3396.21 764.719C3388.82 762.047 3360.73 763.917 3307.51 792.78C3254.29 821.644 3226.21 791.444 3218.81 772.737C3215.12 745.343 3209.94 688.152 3218.81 678.531C3227.68 668.91 3241.73 649.133 3247.64 640.447H3396.21V764.719Z" fill="#472312"/>
<path d="M3183.34 744.675C3192.2 723.963 3216.6 676.526 3196.64 640.447C3176.68 604.368 3014.19 623.344 2897.28 612.386C2864.02 652.473 2923.45 707.794 3028.11 720.622C3069.61 743.339 3158.74 779.952 3183.34 744.675Z" fill="#4F3427"/>
<path d="M2868.46 917.052C2886.2 882.978 2914.58 790.776 2886.2 694.566C2883.24 681.871 2856.93 675.323 2775.32 750.688C2693.72 826.053 2651.15 819.506 2640.06 806.811C2611.23 798.125 2552.69 794.384 2549.15 848.903C2544.71 917.052 2544.71 913.043 2595.71 901.017C2646.71 888.991 2679.97 872.956 2713.24 886.986C2746.5 901.017 2766.46 925.07 2808.59 913.043C2850.72 901.017 2861.81 917.052 2868.46 917.052Z" fill="#604132"/>
<path d="M2755.37 927.074C2807.11 970.502 2882.65 1056.96 2770.89 1055.35C2659.13 1053.75 2640.06 1060.03 2644.5 1063.37C2616.41 1076.07 2555.35 1091.03 2535.84 1049.34C2516.33 1007.65 2576.49 951.795 2609.02 929.079C2626.76 923.734 2664.9 916.25 2675.54 929.079C2686.18 941.907 2705.11 923.733 2713.24 913.043C2731.72 913.043 2766.01 915.85 2755.37 927.074Z" fill="#604C42"/>
<path d="M2801.93 640.447C2837.41 642.451 2811.25 672.517 2786.41 688.552C2761.58 704.587 2759.8 725.968 2762.02 734.653C2762.02 745.343 2752.26 763.516 2713.24 750.688C2674.21 737.86 2633.41 766.723 2617.89 782.758C2609.76 788.772 2579.3 797.19 2522.54 782.758C2451.58 764.719 2407.23 774.741 2464.88 720.622C2511.01 677.328 2440.49 622.408 2535.84 616.395L2671.1 618.399L2801.93 640.447Z" fill="#431F0D"/>
<path d="M2522.54 848.903C2520.32 865.606 2496.37 904.625 2418.32 927.074C2384.31 959.144 2303.9 1009.65 2254.22 955.136C2204.55 900.616 2174.4 921.729 2165.53 939.1C2150.74 953.799 2122.06 967.162 2125.61 903.022C2129.16 838.881 2176.61 770.732 2199.9 744.675C2224.66 744.007 2287.49 747.08 2340.71 764.719C2407.23 786.767 2533.62 836.877 2522.54 848.903Z" fill="#634B3F"/>
<path d="M2487.06 979.188C2481.65 1005.09 2529.08 1093.86 2531.41 1137.53C2533.73 1181.2 2374.94 1124.33 2311.88 1129.52C2280.09 1125.51 2219.63 1109.87 2232.05 1079.41C2244.47 1048.94 2272.7 1056.02 2285.27 1063.37C2294.88 1060.7 2311.88 1050.95 2303.01 1033.31C2294.14 1015.67 2376.18 973.843 2418.32 955.136C2448.62 929.747 2485.28 940.704 2487.06 979.188Z" fill="#1F120B"/>
<path d="M2276.4 1023.28C2258.66 1030.63 2222.74 1050.14 2220.96 1069.39C2219.19 1088.63 2192.14 1102.79 2178.83 1107.47C2163.31 1108.14 2135.81 1094.24 2150 1033.31C2164.2 972.373 2198.79 969.166 2214.31 975.179C2232.79 981.861 2271.08 1000.84 2276.4 1023.28Z" fill="#40281D"/>
<path d="M2130.05 1015.27C2124.87 987.206 2104.33 933.889 2063.52 945.114C2022.72 956.338 1974.09 984.533 1954.87 997.228C1987.39 1019.94 2067.96 1055.35 2130.05 1015.27Z" fill="#5F3724"/>
<path d="M2099 860.93C2084.22 838.881 2042.68 788.772 1994.78 764.719C1946.89 740.666 1880.22 745.343 1852.87 750.688C1818.13 744.007 1749.98 734.653 1755.3 750.688C1761.95 770.732 1801.87 813.849 1801.87 903.022C1801.87 974.36 1852.13 995.55 1877.26 997.228C1913.48 997.228 1998.78 981.193 2050.22 917.052C2076.74 911.039 2123.62 891.396 2099 860.93Z" fill="#533E34"/>
<path d="M2178.83 720.622C2181.05 729.308 2180.16 750.287 2158.87 764.719C2137.59 779.151 2127.83 798.794 2125.61 806.811C2116 814.829 2090.13 821.243 2063.52 782.758C2036.91 744.274 1997.74 725.299 1981.48 720.622C1962.26 708.596 1930.92 682.138 1959.3 672.517C1987.69 662.896 2037.65 651.137 2059.09 646.46C2091.98 647.797 2161.98 664.5 2178.83 720.622Z" fill="#401E0E"/>
<path d="M2427.19 618.399C2427.19 618.399 2464.44 710.601 2400.58 734.653C2399.84 738.662 2391.71 739.865 2365.1 712.605C2350.31 711.937 2318.97 715.411 2311.88 734.653C2304.78 753.895 2224.66 711.937 2185.48 688.552C2152.22 672.517 2135.93 673.583 2132.27 640.447C2128.6 607.311 2427.19 618.399 2427.19 618.399Z" fill="#786C67"/>
<path d="M2132.27 1083.42C2104.92 1100.79 2167.55 1133.93 2007.9 1111.48C1973.16 1104.8 1840.89 1068.58 1926.04 1041.32C2011.19 1014.06 1980 1031.3 1990.35 1037.32C2009.57 1046.67 2059.09 1062.97 2103.44 1053.35C2147.79 1043.73 2141.14 1069.39 2132.27 1083.42Z" fill="#5F4132"/>
<path d="M1815.17 1033.31C1790.04 1066.71 1728.25 1123.9 1682.12 1085.42C1636 1046.94 1675.47 969.166 1690.99 929.078C1687.3 900.349 1672.37 830.864 1642.21 782.758C1612.05 734.653 1665.86 744.007 1706.52 760.71C1728.69 775.409 1773.93 816.031 1777.47 860.93C1781.91 917.052 1781.91 961.149 1793 979.188C1804.08 997.228 1826.26 1019.85 1815.17 1033.31Z" fill="#251107"/>
<path d="M1577.9 858.925C1614.84 812.824 1667.04 870.551 1624.47 997.228L1613.38 1085.42C1602.3 1091.43 1413.26 1125.56 1393.85 1057.36C1373.9 987.206 1329.55 1071.39 1249.72 1079.41C1207.59 1083.42 1080.75 1013.66 1141.07 951.127C1201.38 888.59 1248.98 948.454 1291.85 917.052C1256.37 870.951 1531.34 917.052 1577.9 858.925Z" fill="#7A6B64"/>
<path d="M1926.04 646.46C1943.81 716.669 1914.07 701.38 1852.87 720.622C1846.95 716.614 1828.47 709.398 1801.87 712.605C1781.17 710.601 1738 711.001 1730.91 728.64C1723.81 746.279 1708.73 722.627 1702.08 708.596C1693.95 696.57 1671.48 672.517 1646.64 672.517C1621.81 672.517 1627.43 655.146 1633.34 646.46C1740.08 605.623 1908.27 576.251 1926.04 646.46Z" fill="#827067"/>
<path d="M1626.69 686.548C1614.86 691.893 1607.62 740.265 1584.56 770.732C1555.73 808.815 1544.64 848.903 1495.86 848.903C1456.83 848.903 1424.9 862.266 1413.81 868.947C1401.25 873.624 1378.78 871.753 1389.42 826.855C1379.07 826.187 1361.48 814.027 1373.9 770.732C1386.32 727.437 1387.78 633.975 1394.43 597.896C1401.09 561.818 1427.12 578.311 1504.73 632.43C1582.34 686.548 1616.04 649.826 1626.69 686.548Z" fill="#432C21"/>
<path d="M1358.38 612.386C1374.64 625.748 1378.33 694.966 1325.11 728.64C1339.16 758.706 1361.04 818.837 1336.2 818.837C1305.16 818.837 1274.11 870.326 1231.98 860.93C1189.85 851.533 1189.85 752.693 1203.15 712.605C1213.8 680.535 1239.59 719.633 1216.46 646.46C1193.33 573.287 1351.75 593.9 1358.38 612.386Z" fill="#362923"/>
<path d="M1203.15 890.995C1159.55 908.366 1073.21 950.325 1076.76 979.188C1080.31 1008.05 1056.06 968.498 1043.5 945.114C994.715 938.432 895.817 912.242 890.495 860.93C885.173 809.617 898.626 746.011 906.017 720.622C962.192 731.313 1081.2 763.516 1107.8 806.811C1141.07 860.929 1212.02 824.138 1203.15 890.995Z" fill="#604132"/>
<path d="M1059.02 1109.47C1080.46 1089.43 1098.93 1075.4 1067.89 1015.27C1039.55 960.367 881.625 967.162 852.798 1033.31C823.971 1099.45 841.711 1131.52 901.582 1127.51C961.453 1123.5 1050.15 1085.42 1059.02 1109.47Z" fill="#A06446"/>
<path d="M850.581 927.074C861.668 915.716 881.625 872.956 872.755 792.78C886.799 739.33 894.486 654.478 812.884 742.671C731.282 830.864 694.62 822.178 686.49 806.811C652.489 796.121 575.617 786.767 540.138 834.872C504.659 882.978 517.964 909.703 529.051 917.052C551.965 914.38 605.775 905.427 637.706 890.995C669.637 876.564 714.577 895.672 733.056 907.03C741.187 915.716 765.431 929.88 797.362 917.052C837.276 901.017 828.407 937.096 850.581 927.074Z" fill="#673821"/>
<path d="M1191.94 569.017C1184.55 587.056 1155.26 709.398 1158.81 744.675C1162.35 779.952 1062.72 743.339 1012.45 720.622C969.584 704.587 850.634 567.869 855.956 547.023C989.949 473.045 1186.95 498.182 1191.94 569.017Z" fill="#572E1B"/>
<path d="M901.582 658.487C905.278 675.858 841.711 702.984 797.362 720.622C753.013 738.261 730.1 754.697 724.186 760.71C695.36 767.391 643.915 773.538 668.75 744.675C693.585 715.812 716.056 684.544 724.186 672.517C729.36 663.832 746.361 617.196 772.97 612.386C799.58 607.575 888.278 609.923 901.582 658.487Z" fill="#442B1E"/>
<path d="M693.142 913.043C753.752 947.118 846.589 1028.1 733.056 1079.41C704.968 1076.73 678.951 1010.46 648.793 1023.28C611.097 1039.32 540.667 1049.34 553.972 1015.27C567.276 981.193 515.747 939.1 611.097 937.096C687.377 935.493 697.577 920.393 693.142 913.043Z" fill="#442B1F"/>
<path d="M655.446 736.658C661.359 733.985 669.637 725.433 655.446 712.605C641.254 699.777 594.836 675.19 573.4 664.5C554.182 664.5 512.199 671.716 498.007 700.579C483.815 729.442 441.831 736.658 422.614 736.658C407.831 744.675 395.561 765.922 464.745 786.767C533.929 807.613 560.095 795.453 564.53 786.767C577.096 785.431 607.549 782.758 628.836 782.758C650.124 782.758 655.446 752.024 655.446 736.658Z" fill="#51392D"/>
<path d="M710.881 644.456C702.751 651.137 678.951 663.297 648.793 658.487C618.636 653.676 549.008 660.491 591.14 644.456C633.271 628.421 714.935 577.196 710.881 644.456Z" fill="#4E2C1B"/>
<path d="M116.606 818.837C94.4312 851.576 52.7433 926.272 63.387 963.153C74.0307 1000.03 110.693 961.149 127.693 937.096C145.433 926.406 189.338 913.044 223.043 945.114C256.749 977.184 330.22 953.131 362.742 937.096C382.148 919.725 430.604 884.982 469.18 884.982C507.756 884.982 504.471 854.248 498.007 838.881C478.789 824.182 430.153 792.379 389.352 782.758C348.551 773.137 239.305 752.025 189.782 742.671C175.738 740.666 141.441 753.094 116.606 818.837Z" fill="#936852"/>
<path d="M495.789 945.114C485.441 969.513 465.632 1026.92 469.18 1061.37C472.728 1095.81 478.717 1135.18 443.977 1137.53C411.455 1140.88 266.062 1113.88 243 1083.42C219.939 1052.95 325.046 990.546 380.482 963.153C401.178 938.432 447.893 893.801 469.18 913.043C495.789 937.096 508.316 911.039 495.789 945.114Z" fill="#260F04"/>
<path d="M262.957 1003.24C235.609 975.179 172.486 925.872 138.78 953.131C105.075 980.391 96.649 1021.95 96.649 1039.32C83.4398 1060.7 76.0338 1098.65 152.085 1079.41C228.136 1060.17 241.427 1039.32 238.565 1031.3C253.348 1028.09 278.923 1017.97 262.957 1003.24Z" fill="#533D32"/>
<path d="M1.29841 1166.84C34.5601 1169.52 95.3184 1085.82 54.5173 1031.3C13.7163 976.783 1.29841 977.852 1.29841 985.201V1166.84Z" fill="#6C5448"/>
<path d="M1.29841 762.715C18.2988 766.055 60.726 778.349 85.5614 800.798C110.397 823.247 131.389 771.4 138.78 742.671C155.781 741.334 184.016 733.851 160.955 714.609C132.128 690.557 105.518 656.482 1.29841 668.509V762.715Z" fill="#634131"/>
<path d="M498.007 646.46C493.572 660.491 457.206 727.037 391.57 720.622C325.933 714.208 315.437 723.295 318.393 728.64C302.132 735.321 260.296 743.072 223.043 720.622C176.477 692.561 143.215 660.491 147.65 646.46C181.423 633.936 187.564 606.373 234.13 614.39C280.697 622.408 449.223 622.408 471.398 618.399C493.572 614.39 502.442 632.43 498.007 646.46Z" fill="#52433B"/>
<path d="M1.29841 804.807V868.947V933.087C4.01906 928.025 27.3179 920.967 54.5173 884.982C92.3929 834.872 36.7776 813.492 1.29841 804.807Z" fill="#775747"/>
<path d="M694.441 1111.48C676.701 1118.83 640.779 1138.34 639.005 1157.58C637.231 1176.82 563.612 1099.13 550.307 1103.81C534.785 1104.48 478.462 1140.34 492.653 1079.41C506.845 1018.47 616.83 1057.36 632.353 1063.37C650.831 1070.05 689.119 1089.03 694.441 1111.48Z" fill="#9D6C53"/>
<path d="M3.36915 1188.8C23.3262 1180.78 74.5016 1169.56 92.2412 1188.8C100.372 1198.82 180.183 1230.49 165.992 1244.92C148.252 1262.96 47.7224 1279 36.6352 1276.99C27.7654 1275.39 10.0215 1276.32 3.36915 1276.99V1188.8Z" fill="#462515"/>
<path d="M79.996 1104.86C77.0394 1123.57 163.381 1195.21 189.99 1204.84C223.252 1216.86 197.358 1279 277.186 1206.84C290.491 1193.11 329.518 1138.62 308.23 1126.66C286.943 1114.71 242.446 1119.01 228.402 1126.66C210.662 1130 165.992 1112.88 165.992 1104.86C165.992 1094.84 77.7785 1090.83 79.996 1104.86Z" fill="#4E3225"/>
<path d="M379.188 1150.72C351.84 1142.03 299.36 1136.29 308.23 1182.79C298.621 1198.15 287.83 1234.1 321.535 1254.94C363.666 1281 492.278 1367.19 518.888 1287.02C540.175 1222.87 555.845 1202.83 561.019 1200.83C581.715 1171.43 584.524 1133.88 518.888 1138.69C453.251 1143.5 440.24 1194.15 423.978 1200.83L379.188 1150.72Z" fill="#3C291F"/>
<path d="M2.22241 1303.05C11.8313 1295.7 52.7802 1282.2 139.704 1287.02C154.487 1279.67 195.14 1265.37 239.489 1266.97C283.838 1268.57 203.271 1331.78 157.444 1363.18C137.487 1395.25 78.5026 1455.38 2.22241 1439.35V1303.05Z" fill="#967564"/>
<path d="M179.618 1381.22C208.445 1397.92 270.977 1436.94 290.491 1459.39C310.004 1481.84 424.277 1494.13 478.974 1497.48C491.539 1449.37 500.261 1350.75 434.625 1341.13C368.988 1331.51 343.709 1306.39 339.274 1295.03C326.709 1277.66 297.143 1254.94 279.403 1303.05C269.055 1315.74 244.368 1341.13 228.402 1341.13C208.445 1341.13 166.313 1373.35 179.618 1381.22Z" fill="#5C463C"/>
<path d="M2.22241 1477.43C9.6139 1480.1 37.7016 1478.23 90.9203 1449.37C144.139 1420.51 172.227 1450.71 179.618 1469.41C183.314 1496.81 188.488 1554 179.618 1563.62C170.748 1573.24 156.705 1593.02 150.791 1601.7H2.22241V1477.43Z" fill="#472312"/>
<path d="M215.097 1497.48C206.228 1518.19 181.836 1565.63 201.793 1601.7C221.75 1637.78 384.242 1618.81 501.148 1629.77C534.41 1589.68 474.982 1534.36 370.319 1521.53C328.824 1498.81 239.688 1462.2 215.097 1497.48Z" fill="#6A3B24"/>
<path d="M529.975 1325.1C512.235 1359.17 483.852 1451.37 512.235 1547.58C515.192 1560.28 541.506 1566.83 623.108 1491.46C704.71 1416.1 747.285 1422.64 758.372 1435.34C787.199 1444.02 845.739 1447.77 849.287 1393.25C853.722 1325.1 853.722 1329.11 802.721 1341.13C751.72 1353.16 718.458 1369.19 685.196 1355.16C651.934 1341.13 631.977 1317.08 589.846 1329.11C547.714 1341.13 536.627 1325.1 529.975 1325.1Z" fill="#604132"/>
<path d="M643.065 1315.08C591.324 1271.65 515.783 1185.19 627.542 1186.8C739.302 1188.4 749.502 1046.49 780.546 1126.66C808.634 1113.97 843.078 1151.12 862.592 1192.81C882.105 1234.5 821.939 1290.36 789.416 1313.07C771.676 1318.42 733.536 1325.9 722.893 1313.07C712.249 1300.24 693.327 1318.42 685.196 1329.11C666.717 1329.11 632.421 1326.3 643.065 1315.08Z" fill="#927F76"/>
<path d="M596.498 1601.7C561.019 1599.7 587.185 1569.63 612.02 1553.6C636.856 1537.56 638.63 1516.18 636.412 1507.5C636.412 1496.81 646.169 1478.63 685.196 1491.46C724.223 1504.29 765.024 1475.43 780.546 1459.39C788.677 1453.38 819.13 1444.96 875.897 1459.39C946.855 1477.43 991.204 1467.41 933.55 1521.53C887.427 1564.82 957.942 1619.74 862.592 1625.76L727.328 1623.75L596.498 1601.7Z" fill="#431F0D"/>
<path d="M875.897 1393.25C878.114 1376.54 902.062 1337.53 980.117 1315.08C1014.12 1283.01 1094.54 1232.5 1144.21 1287.02C1193.88 1341.53 1224.04 1320.42 1232.91 1303.05C1247.69 1288.35 1276.37 1274.99 1272.82 1339.13C1269.27 1403.27 1221.82 1471.42 1198.53 1497.48C1173.77 1498.14 1110.95 1495.07 1057.73 1477.43C991.204 1455.38 864.809 1405.27 875.897 1393.25Z" fill="#634B3F"/>
<path d="M886.984 1315.08C892.388 1289.18 902.615 1226.46 900.289 1182.79C897.962 1139.12 1023.5 1117.82 1086.55 1112.63C1118.34 1116.64 1178.8 1132.28 1166.38 1162.74C1153.96 1193.21 1125.73 1186.13 1113.16 1178.78C1103.55 1181.45 1086.55 1191.21 1095.42 1208.84C1104.29 1226.48 1022.25 1268.31 980.117 1287.02C949.811 1312.4 888.758 1353.56 886.984 1315.08Z" fill="#4B3124"/>
<path d="M1122.03 1218.87C1139.77 1211.52 1175.7 1192.01 1177.47 1172.77C1179.24 1153.52 1206.3 1139.36 1219.6 1134.68C1235.12 1134.01 1262.62 1147.91 1248.43 1208.84C1234.24 1269.78 1199.64 1272.98 1184.12 1266.97C1165.64 1260.29 1127.36 1241.32 1122.03 1218.87Z" fill="#40281D"/>
<path d="M1268.38 1226.88C1273.56 1254.94 1294.11 1308.26 1334.91 1297.04C1375.71 1285.81 1424.35 1257.62 1443.56 1244.92C1411.04 1222.21 1330.47 1186.8 1268.38 1226.88Z" fill="#5F3724"/>
<path d="M1299.43 1381.22C1314.21 1403.27 1355.75 1453.38 1403.65 1477.43C1451.55 1501.48 1518.22 1496.81 1545.57 1491.46C1580.31 1498.14 1648.46 1507.5 1643.13 1491.46C1636.48 1471.42 1596.57 1428.3 1596.57 1339.13C1596.57 1267.79 1546.3 1246.6 1521.17 1244.92C1484.96 1244.92 1399.66 1260.96 1348.21 1325.1C1321.69 1331.11 1274.81 1350.75 1299.43 1381.22Z" fill="#504B49"/>
<path d="M1219.6 1521.53C1217.38 1512.84 1218.27 1491.86 1239.56 1477.43C1260.85 1463 1270.6 1443.36 1272.82 1435.34C1282.43 1427.32 1308.3 1420.91 1334.91 1459.39C1361.52 1497.88 1400.69 1516.85 1416.95 1521.53C1436.17 1533.55 1467.51 1560.01 1439.13 1569.63C1410.74 1579.25 1360.78 1591.01 1339.34 1595.69C1306.45 1594.35 1236.45 1577.65 1219.6 1521.53Z" fill="#401E0E"/>
<path d="M971.247 1623.75C971.247 1623.75 933.994 1531.55 997.856 1507.5C998.595 1503.49 1006.73 1502.29 1033.34 1529.55C1048.12 1530.21 1079.46 1526.74 1086.55 1507.5C1093.65 1488.26 1173.77 1530.21 1212.95 1553.6C1246.21 1569.63 1262.51 1568.57 1266.17 1601.7C1269.83 1634.84 971.247 1623.75 971.247 1623.75Z" fill="#4B3022"/>
<path d="M1252.86 1094.59C1280.21 1077.22 1388.13 1112.23 1547.78 1134.68C1582.52 1141.36 1630.72 1161.54 1545.57 1188.8C1460.42 1216.06 1418.43 1210.85 1408.08 1204.84C1388.87 1195.48 1339.34 1179.18 1294.99 1188.8C1250.65 1198.42 1243.99 1108.62 1252.86 1094.59Z" fill="#5F4132"/>
<path d="M1583.26 1208.84C1608.39 1175.44 1670.19 1118.25 1716.31 1156.73C1762.43 1195.21 1758.61 1341.13 1743.09 1381.22C1746.78 1409.95 1746.02 1423.31 1776.18 1471.42C1806.34 1519.52 1732.57 1498.14 1691.92 1481.44C1669.74 1466.74 1624.51 1426.12 1620.96 1381.22C1616.52 1325.1 1616.52 1281 1605.44 1262.96C1594.35 1244.92 1572.17 1222.31 1583.26 1208.84Z" fill="#895035"/>
<path d="M1913.9 1238.91C1884.34 1224.21 1722.52 1253.34 1765.09 1126.66L1829.4 1058.87C1840.49 1052.86 1974.86 1154.32 2051.14 1168.76C2127.42 1183.19 2159.8 1146.71 2239.63 1138.69C2281.76 1134.68 2350.94 1142.3 2290.63 1204.84C2230.31 1267.37 2156.1 1283.67 2113.23 1315.08C2113.23 1381.22 1972.44 1147.51 1913.9 1238.91Z" fill="#503A2F"/>
<path d="M1472.39 1595.69C1454.62 1525.48 1484.36 1540.77 1545.57 1521.53C1551.48 1525.54 1569.96 1532.75 1596.57 1529.55C1617.26 1531.55 1660.43 1531.15 1667.53 1513.51C1674.62 1495.87 1689.7 1519.52 1696.35 1533.55C1704.48 1545.58 1726.95 1569.63 1751.79 1569.63C1776.62 1569.63 1771.01 1587 1765.09 1595.69C1658.35 1636.53 1490.16 1665.9 1472.39 1595.69Z" fill="#553C2F"/>
<path d="M1809.44 1533.55C1821.27 1528.21 1806.34 1521.93 1829.4 1491.46C1858.23 1453.38 1780.61 1413.29 1829.4 1413.29C1868.43 1413.29 1989.05 1399.93 2000.14 1393.25C2012.71 1388.57 2035.18 1390.44 2024.53 1435.34C2034.88 1436.01 2052.47 1448.17 2040.06 1491.46C2027.64 1534.76 2017.88 1559.61 2011.23 1595.69C2004.58 1631.77 1820.53 1613.73 1809.44 1595.69C1798.35 1577.65 1820.09 1570.28 1809.44 1533.55Z" fill="#2E190F"/>
<path d="M2055.58 1595.69C2039.32 1582.33 2020.1 1547.18 2073.32 1513.51C2059.27 1483.44 2037.4 1423.31 2062.23 1423.31C2093.27 1423.31 2124.32 1371.82 2166.45 1381.22C2208.58 1390.62 2208.58 1489.46 2195.28 1529.55C2184.63 1561.62 2158.84 1522.52 2181.97 1595.69C2205.1 1668.86 2062.21 1614.18 2055.58 1595.69Z" fill="#513E35"/>
<path d="M2195.28 1351.16C2238.89 1333.78 2325.22 1291.83 2321.67 1262.96C2318.12 1234.1 2342.37 1273.65 2354.93 1297.04C2403.72 1303.72 2502.62 1329.91 2507.94 1381.22C2513.26 1432.53 2499.81 1496.14 2492.42 1521.53C2436.24 1510.84 2317.24 1478.63 2290.63 1435.34C2257.37 1381.22 2186.41 1418.01 2195.28 1351.16Z" fill="#423C39"/>
<path d="M2363.8 1168.76C2342.37 1188.8 2310.58 1235.7 2354.93 1262.96C2410.37 1297.04 2541.2 1311.07 2570.03 1244.92C2598.85 1178.78 2585.55 1176.77 2525.68 1180.78C2465.81 1184.79 2372.67 1192.81 2363.8 1168.76Z" fill="#6B4430"/>
<path d="M2554.82 1321.09C2543.73 1332.45 2523.78 1375.21 2532.65 1455.38C2518.6 1508.83 2510.92 1593.69 2592.52 1505.49C2674.12 1417.3 2710.78 1425.99 2718.91 1441.35C2752.91 1452.04 2829.79 1461.4 2865.26 1413.29C2900.74 1365.19 2887.44 1338.46 2876.35 1331.11C2853.44 1333.78 2799.63 1342.74 2767.7 1357.17C2735.77 1371.6 2690.83 1352.49 2672.35 1341.13C2664.22 1332.45 2639.97 1318.28 2608.04 1331.11C2568.13 1347.15 2577 1311.07 2554.82 1321.09Z" fill="#53240D"/>
<path d="M2221.89 1595.69C2229.28 1577.65 2243.17 1532.75 2239.63 1497.48C2236.08 1462.2 2335.72 1498.81 2385.98 1521.53C2428.85 1537.56 2513.26 1574.84 2507.94 1595.69C2331.44 1638.69 2226.88 1666.53 2221.89 1595.69Z" fill="#4E2E1E"/>
<path d="M2556.72 1595.69C2553.03 1578.32 2556.72 1539.17 2601.07 1521.53C2645.42 1503.89 2668.33 1487.45 2674.25 1481.44C2703.07 1474.76 2754.52 1468.61 2729.68 1497.48C2704.85 1526.34 2682.38 1557.61 2674.25 1569.63C2669.07 1578.32 2652.07 1592.88 2625.46 1597.69C2598.85 1602.51 2568.55 1598.36 2556.72 1595.69Z" fill="#45342C"/>
<path d="M2742.99 1505.49C2737.07 1508.17 2728.8 1516.72 2742.99 1529.55C2757.18 1542.37 2803.6 1566.96 2825.03 1577.65C2844.25 1577.65 2886.23 1570.43 2900.43 1541.57C2914.62 1512.71 2956.6 1505.49 2975.82 1505.49C2990.6 1497.48 3002.87 1476.23 2933.69 1455.38C2864.5 1434.54 2838.34 1446.7 2833.9 1455.38C2821.34 1456.72 2790.88 1459.39 2769.6 1459.39C2748.31 1459.39 2742.99 1490.13 2742.99 1505.49Z" fill="#51392D"/>
<path d="M2687.55 1597.69C2695.68 1591.01 2719.48 1578.85 2749.64 1583.66C2779.8 1588.47 2849.42 1581.66 2807.29 1597.69C2765.16 1613.73 2683.5 1664.95 2687.55 1597.69Z" fill="#4E2C1B"/>
<path d="M3281.83 1423.31C3304 1390.57 3345.69 1315.88 3335.05 1279C3324.4 1242.12 3287.74 1281 3270.74 1305.05C3253 1315.74 3209.09 1329.11 3175.39 1297.04C3141.68 1264.97 3068.21 1289.02 3035.69 1305.05C3016.28 1322.43 2967.83 1357.17 2929.25 1357.17C2890.68 1357.17 2893.96 1387.9 2900.43 1403.27C2919.64 1417.97 2968.28 1449.77 3009.08 1459.39C3049.88 1469.01 3159.13 1490.13 3208.65 1499.48C3222.69 1501.48 3256.99 1489.06 3281.83 1423.31Z" fill="#92827B"/>
<path d="M3135.48 1238.91C3162.82 1266.97 3225.95 1316.28 3259.65 1289.02C3293.36 1261.76 3301.78 1220.2 3301.78 1202.83C3314.99 1181.45 3322.4 1143.5 3246.35 1162.74C3170.3 1181.99 3157.01 1202.83 3159.87 1210.85C3145.08 1214.06 3119.51 1224.18 3135.48 1238.91Z" fill="#533D32"/>
<path d="M3397.13 1150.72C3363.87 1148.04 3303.11 1156.33 3343.91 1210.85C3384.72 1265.37 3397.13 1264.3 3397.13 1256.95V1150.72Z" fill="#6C5448"/>
<path d="M3397.13 1479.44C3380.13 1476.1 3337.71 1463.8 3312.87 1441.35C3288.04 1418.9 3267.04 1470.75 3259.65 1499.48C3242.65 1500.82 3214.42 1508.3 3237.48 1527.54C3266.3 1551.59 3292.91 1585.67 3397.13 1573.64V1479.44Z" fill="#634131"/>
<path d="M2900.43 1595.69C2904.86 1581.66 2941.23 1515.11 3006.86 1521.53C3072.5 1527.94 3083 1518.86 3080.04 1513.51C3096.3 1506.83 3138.14 1499.08 3175.39 1521.53C3221.96 1549.59 3255.22 1581.66 3250.78 1595.69C3217.01 1608.21 3210.87 1635.78 3164.3 1627.76C3117.74 1619.74 2949.21 1619.74 2927.03 1623.75C2904.86 1627.76 2895.99 1609.72 2900.43 1595.69Z" fill="#52433B"/>
<path d="M3397.13 1437.34V1373.2V1309.06C3394.41 1314.13 3371.11 1321.18 3343.91 1357.17C3306.04 1407.28 3361.65 1428.66 3397.13 1437.34Z" fill="#775747"/>
<path d="M2554.87 1103.86C2533.43 1123.9 2681.36 1238.91 2711.94 1203.33C2730.88 1181.3 2757.19 1323.23 2796.21 1325.1C2844.58 1327.42 2973.89 1222.45 2989.85 1185.84C3018.67 1119.69 2884.9 1134.99 2825.03 1138.99C2799.49 1140.7 2782.9 1085.2 2742.99 1071.87C2674.25 1111.36 2549.78 1077.88 2554.87 1103.86Z" fill="#A4897B"/>
<path d="M2618.87 1223.32C2593.03 1237.4 2551.37 1269.51 2591.37 1285.31C2641.36 1305.05 2740.36 1356.89 2736.86 1325.1C2733.36 1293.3 2672.78 1294.3 2692.36 1280.81C2711.94 1267.31 2743.86 1251.32 2697.36 1231.82C2660.16 1216.23 2629.53 1219.66 2618.87 1223.32Z" fill="#854B2F"/>
<path d="M2995.85 1244.92C2984.76 1256.28 2924.82 1216.86 2933.69 1297.04C2919.64 1350.49 2986.91 1328.58 3083.84 1252.82C3123.68 1221.68 3140.71 1147.38 3148.84 1162.74C3182.84 1173.43 3210.87 1168.96 3246.35 1120.85C3232.94 1105.25 3172.03 1086.98 3035.69 1138.69C2995.78 1154.73 3018.02 1234.9 2995.85 1244.92Z" fill="#AE6D4C"/>
<path d="M1795.43 1363.18C1793.21 1354.5 1774.14 1260.28 1795.43 1245.85C1816.72 1231.42 1871.46 1326.93 1902.71 1276.99C1912.31 1268.98 1980.09 1228.36 2006.7 1266.85C2033.31 1305.33 2029.35 1324.43 2045.61 1329.11C2064.83 1341.13 2096.17 1367.59 2067.79 1377.21C2039.41 1386.83 1965.67 1358.5 1944.24 1363.18C1911.34 1361.85 1812.28 1419.3 1795.43 1363.18Z" fill="#401E0E"/>
</svg>
