<svg width="3026" height="2363" viewBox="0 0 3026 2363" fill="none" xmlns="http://www.w3.org/2000/svg">
<path d="M1.979 175.443L39.5814 164.81C23.0891 147.679 -5.93728 101.367 9.89529 53.1646C17.8116 85.654 41.1646 153.468 71.2465 164.81C63.3302 123.46 49.8725 36.5063 59.3721 19.4937C68.6077 61.4346 89.4539 144.608 98.9535 141.772C108.453 138.937 102.912 137.046 98.9535 136.456C104.891 122.278 118.348 92.8608 124.681 88.6076L130.619 164.81C139.854 140.591 142.493 77.6203 79.1628 19.4937C104.891 36.0338 157.534 77.6203 162.284 111.646C164.517 86.6524 167.505 38.7337 164.535 18.5716C163.754 15.7875 163.001 13.1334 162.284 10.6329C163.258 12.1593 163.995 14.9069 164.535 18.5716C172.188 45.8522 182.548 85.6264 188.438 115.924C186.042 79.9449 185.312 41.7531 191.97 40.7595C196.588 80.9283 214.927 163.392 251.342 171.899H338.421C335.782 144.135 316.651 76.2025 261.237 26.5823C292.902 47.8481 357.024 99.5949 360.191 136.456C358.872 109.283 359.003 53.519 370.086 47.8481C369.427 72.6582 369.69 122.278 376.023 122.278C382.357 122.278 382.62 82.1097 381.961 62.0253C391.196 89.1983 407.689 146.38 399.772 157.722H413.626L403.73 31.8987C414.286 73.2489 437.771 153.114 447.27 141.772C445.951 119.916 446.478 70.5316 459.144 47.8481C459.804 77.384 463.498 139.291 472.998 150.633L496.747 157.722C497.407 128.776 492.393 64.8608 467.061 40.7595C481.574 48.4388 511.392 75.4937 514.558 122.278C517.197 98.6498 520.891 45.0127 514.558 19.4937C528.412 44.3038 550.182 108.101 526.433 164.81L564.035 171.899C565.355 151.224 577.493 102.076 615.491 70.8861C603.617 99.8312 583.43 160.557 597.679 171.899L712.466 175.443C720.382 155.949 726.319 104.203 686.738 53.1646C702.57 66.7511 735.423 99.5949 740.173 122.278C743.471 113.418 753.234 93.2152 765.901 83.2911C754.686 119.916 736.61 189.62 754.026 175.443L771.838 180.759L795.587 31.8987L803.503 171.899C813.474 135.068 831.451 60.9152 828.071 43.2611C827.792 42.3707 827.518 41.5355 827.252 40.7595C827.602 41.387 827.873 42.2271 828.071 43.2611C833.277 59.8829 840.139 95.739 831.384 125.245C838.745 100.841 856.246 53.1646 868.812 53.1646C857.597 83.8819 840.314 151.342 860.896 175.443L894.54 171.899C879.367 151.814 851.396 107.038 860.896 88.6076C868.153 103.376 885.436 132.203 896.519 129.367C911.032 121.688 939.267 99.2405 936.101 70.8861C940.719 89.789 943.621 136.456 918.289 171.899L969.745 150.633C961.829 115.781 949.162 36.8608 961.829 0C971.724 59.6625 996.66 174.734 1017.24 157.722C1027.14 140 1051.28 100.304 1068.7 83.2911C1054.84 111.646 1030.7 169.063 1044.95 171.899L1183.48 157.722C1201.3 142.363 1229.4 99.9494 1199.32 53.1646C1208.55 58.481 1226.63 71.9494 1225.05 83.2911C1230.98 72.0675 1245.63 47.8481 1256.71 40.7595C1209.21 134.329 1227.68 157.722 1242.86 157.722L1278.48 150.633C1281.78 134.684 1280.06 75.1392 1262.65 49.6203C1275.82 61.412 1304.72 107.471 1306.19 126.608V53.1646C1314.1 74.4304 1327.56 123.696 1318.06 150.633H1337.85C1341.81 138.228 1342.6 98.1772 1314.1 37.2152C1330.58 59.5953 1360.06 105.713 1363.89 133.483C1365.26 105.65 1371.52 62.548 1389.31 47.8481C1382.71 82.1097 1373.48 152.051 1389.31 157.722H1442.74C1432.19 131.73 1415.83 67.6962 1434.83 19.4937C1436.15 53.1646 1445.91 126.532 1474.41 150.633C1469.79 123.46 1465.3 64.8608 1484.3 47.8481C1482.32 82.1097 1484.3 150.633 1508.05 150.633C1524.54 134.684 1545.26 86.1266 1496.18 19.4937C1523.23 46.076 1571.78 110.937 1549.61 157.722H1682.21C1680.89 142.363 1671.92 104.557 1646.59 76.2025C1670.34 89.1983 1717.83 122.278 1717.83 150.633H1735.65C1733.01 130.549 1721 81.8734 1694.08 47.8481C1707.94 59.0717 1737.23 84.7089 1743.56 97.4684C1743.86 98.0754 1744.14 98.6447 1744.4 99.1782C1748.15 83.5363 1756.04 57.0958 1763.35 53.1646C1758.73 86.8354 1756.62 156.304 1785.12 164.81L1769.29 31.8987L1818.77 164.81C1818.77 139.409 1825.89 80.4557 1854.39 47.8481C1847.79 71.4768 1840.54 126.532 1864.29 157.722C1888.03 188.911 1886.05 180.169 1882.1 171.899C1888.03 170.127 1896.35 148.506 1882.1 76.2025C1888.03 93.924 1901.49 129.367 1907.82 129.367C1915.74 129.367 1931.57 72.6582 1931.57 40.7595C1932.23 72.0675 1931.97 140.709 1925.64 164.81C1942.79 163.038 1977.09 154.886 1977.09 136.456C1983.69 128.776 1986.99 98.8861 1947.41 40.7595C1973.13 60.2532 2023.4 113.772 2018.65 171.899H2078.02C2066.15 148.27 2045.96 82.2279 2060.21 7.08861C2061.53 30.1266 2068.53 84.3544 2085.94 116.962C2085.28 95.1055 2089.9 45.0127 2113.65 19.4937C2104.41 51.3924 2091.48 123.696 2113.65 157.722C2122.22 138.228 2137.4 90.0253 2129.48 53.1646C2140.04 69.1139 2157.98 108.101 2145.31 136.456C2158.81 109.986 2185.07 51.0055 2184.96 21.7607C2184.94 20.9904 2184.92 20.2345 2184.89 19.4937C2184.94 20.2276 2184.96 20.9837 2184.96 21.7607C2186.06 63.9892 2181.64 149.622 2155.21 171.899L2264.06 164.81C2270.65 141.181 2283.45 83.2911 2281.87 40.7595C2289.13 63.2068 2302.45 115.544 2297.7 145.316C2304.3 137.637 2319.47 105.266 2327.39 37.2152C2332.01 58.481 2338.47 108.101 2327.39 136.456C2342.56 121.097 2373.3 76.2025 2374.89 19.4937C2383.46 48.4388 2390.32 118.025 2349.16 164.81L2390.72 136.456L2410.51 7.08861L2416.45 97.4684C2430.3 75.0211 2467.51 26.5823 2505.5 12.4051C2475.16 38.9873 2417.24 105.266 2428.32 157.722H2452.07L2444.15 97.4684C2452.07 102.785 2469.88 119.797 2477.8 145.316C2489.01 119.916 2520.55 63.443 2556.96 40.7595C2537.17 72.0675 2500.75 140.709 2513.42 164.81L2549.04 150.633C2543.02 139.409 2532.2 111.646 2537.17 90.3797C2543.11 105.148 2556.96 133.62 2564.88 129.367C2581.37 114.599 2614.35 72.6582 2614.35 23.038C2620.29 56.1181 2626.23 129.367 2602.48 157.722H2622.27C2627.55 134.093 2636.52 82.9367 2630.19 67.3418C2640.08 88.0169 2658.29 133.62 2651.96 150.633C2664.49 133.502 2687.18 87.5443 2677.68 40.7595C2687.58 77.384 2704.99 152.051 2695.5 157.722H2818.2C2814.24 130.549 2798.41 65.5696 2766.74 23.038C2787.85 40.7595 2830.86 85.0633 2834.03 120.506C2836.01 103.376 2844.72 61.6709 2863.72 31.8987C2858.44 75.6118 2851.05 164.81 2863.72 171.899C2865.29 172.782 2866.6 173.528 2867.67 174.153C2867.7 137.071 2868.92 62.9735 2873.61 53.1646C2876.25 92.7426 2885.09 170.481 2899.34 164.81C2896.04 139.409 2893.8 84.3544 2911.21 67.3418C2908.58 104.557 2908.44 177.57 2929.03 171.899C2950.8 146.498 2983.25 82.9367 2938.92 31.8987C2964.65 53.7553 3009.38 112.354 2982.46 171.899C2996.31 146.498 3007.4 102.43 2988.4 58.481C3002.91 79.1561 3024.02 118.734 3026 198.481V377.468V907H9.89536L1.979 175.443Z" fill="#91B209"/>
<path d="M0.540474 202.51C-1.43817 177.044 0.936201 116.162 26.2628 76.3634C20.9864 113.082 15.1824 186.52 34.1773 186.52C32.1987 152.762 41.3004 78.4955 93.5366 51.4894C79.0265 66.2953 51.5894 102.659 57.921 129.665C61.8783 120.781 74.5416 99.1054 93.5366 83.4703C73.7501 114.267 43.2791 181.19 79.6861 202.51C96.8343 191.258 127.965 153.473 115.302 92.3539C124.167 107.281 138.806 138.762 137.627 161.931C143.052 135.049 150.293 93.3909 148.939 76.3634C156.194 106.568 167.933 172.662 156.853 195.404H176.64C179.937 177.636 181.388 128.599 160.81 74.5867C171.363 90.5772 193.656 127.178 198.405 145.655C201.702 129.073 216.212 88.4451 247.871 58.5962C234.02 89.9849 209.485 159.514 222.148 186.52L251.828 191.85C242.594 161.646 237.977 92.7092 293.379 58.5962C275.572 79.9169 248.266 135.35 281.507 186.52C295.358 177.636 319.497 144.589 305.251 83.4703C313.166 99.4608 326.621 143.523 317.123 191.85C328.335 182.967 350.364 148.854 348.781 83.4703C352.739 108.937 360.653 164.133 360.653 181.19L380.44 186.52C389.014 165.792 402.6 119.36 388.354 99.4608C396.475 108.435 411.221 129.097 408.724 143.333C412.714 127.133 418.599 96.4985 414.076 87.0237C421.991 99.4608 436.633 127.533 431.884 140.325C438.48 126.112 457.607 93.0646 481.35 74.5867C466.181 101.83 437.82 159.869 445.735 174.083L471.457 168.753C474.755 148.024 481.35 105.146 481.35 99.4608C481.35 93.7753 487.946 132.626 491.243 152.762C506.413 129.073 543.875 80.2722 572.368 74.5867C557.858 87.616 526.068 125.756 514.987 174.083L554.56 168.753C555.879 168.161 560.496 160.225 568.41 133.218C571.049 127.296 571.972 112.253 554.56 99.4608C565.113 104.199 590.571 122.558 607.983 158.092L615.898 168.753V51.4894C624.472 85.247 640.433 157.026 635.684 174.083H647.556C640.301 154.539 628.957 107.278 641.62 74.5867C642.939 107.752 649.93 174.083 667.343 174.083H685.15L689.108 97.684C691.086 119.597 696.626 164.489 702.958 168.753L718.787 174.083C722.745 161.686 729.472 130.839 724.723 106.627C730.586 122.884 740.412 153.208 741.46 167.245C745.583 151.267 753.632 112.982 724.723 87.0237C741.871 102.422 774.981 142.813 770.232 181.19C792.656 153.947 836.318 84.8917 831.57 26.6153C835.527 52.6738 838.693 117.583 819.698 168.753C815.741 181.359 812.575 205.759 831.57 202.51L873.121 195.404C867.845 160.461 870.747 85.9577 877.078 60.3729C881.695 91.1694 882.223 154.539 894.886 168.753C898.844 140.918 906.758 83.1149 906.758 74.5867C908.077 115.451 914.277 196.114 928.523 191.85C934.459 166.384 940.791 106.212 918.63 69.2565L938.416 97.684C938.416 86.2906 936.586 60.6502 929.402 46.0627C929.102 45.4861 928.809 44.9258 928.523 44.3825C928.825 44.9241 929.118 45.4847 929.402 46.0627C940.885 68.1118 962.596 113.826 964.139 133.218C973.372 118.412 990.257 81.3382 983.925 51.4894C990.521 82.2858 998.567 152.407 977.989 186.52L995.797 191.85V69.2565C1000.41 97.0918 1014 152.762 1031.41 152.762L1086.81 69.2565C1077.58 84.0625 1060.3 116.873 1065.05 129.665C1074.94 113.082 1098.69 77.7848 1114.52 69.2565C1094.73 102.422 1058.72 173.372 1072.96 191.85H1104.62C1110.72 186.552 1123.22 175.582 1124.41 174.083C1131.66 165.199 1145.78 143.879 1144.2 129.665C1146.62 141.431 1149.76 162.816 1148.1 176.126C1156.03 151.14 1160.85 107.703 1134.3 74.5867C1149.47 87.616 1177.83 122.558 1169.92 158.092C1186.41 154.539 1209.89 133.574 1171.9 78.1401C1187.73 92.3539 1218.99 128.244 1217.4 158.092C1228.25 138.895 1243.98 113.653 1256.61 90.9391C1256.33 62.335 1257.33 38.4188 1260.93 31.9455C1261.48 43.2407 1262.66 59.7688 1264.54 76.1606C1272.12 61.3594 1277.32 48.7349 1277.39 41.2235C1277.21 39.8824 1277 38.5658 1276.76 37.2756C1277.2 38.3601 1277.4 39.6844 1277.39 41.2235C1280.02 61.0588 1276.05 86.242 1269.89 110.316C1271.85 119.141 1274.13 126.123 1276.76 129.665C1282.7 107.16 1300.9 57.1749 1326.23 37.2756C1316.34 55.0428 1297.74 94.8413 1302.49 111.898C1307.76 103.606 1321.09 87.0237 1332.17 87.0237C1317 114.859 1290.61 173.728 1306.44 186.52C1320.95 154.539 1345.23 84.181 1326.23 58.5962C1338.1 73.9945 1359.47 112.964 1349.97 145.655C1359.21 119.005 1380.44 62.8604 1391.53 51.4894C1379.65 93.5384 1357.49 179.413 1363.82 186.52H1383.61C1392.84 162.83 1410.52 110.832 1407.35 92.3539C1411.31 102.422 1418.04 126.112 1413.29 140.325C1418.57 128.48 1427.54 98.7501 1421.2 74.5867C1427.8 86.4315 1439.01 117.228 1431.1 145.655C1450.88 120.189 1497.98 64.2817 1528.05 44.3825C1491.12 95.3151 1423.97 199.668 1450.88 209.617L1486.5 204.287C1477.93 173.491 1473.44 101.948 1524.09 62.1497C1509.58 82.878 1487.69 136.772 1516.18 186.52C1528.71 171.122 1552.19 130.731 1545.86 92.3539C1553.02 111.632 1564.7 153.28 1559.85 178.946C1585.43 151.485 1631.16 87.2345 1625 31.9455C1630.94 64.5186 1631.34 144.589 1585.43 204.287H1609.18C1615.11 172.306 1644.4 96.9734 1714.04 51.4894C1693.6 73.4022 1653.5 127.533 1656.66 168.753C1664.58 149.801 1687.13 105.146 1714.04 78.1401C1700.85 99.4608 1676.85 145.3 1686.34 158.092C1703.49 136.18 1736.2 81.3382 1729.87 37.2756C1737.13 59.7807 1747.28 112.964 1729.87 145.655C1741.74 127.296 1774.19 87.3791 1809.02 74.5867C1785.27 94.1306 1740.95 142.813 1753.62 181.19L1789.23 174.083C1791.02 158.092 1792.33 123.269 1783.3 111.898C1789.89 114.859 1803.08 123.269 1803.08 133.218C1804.4 121.966 1812.58 96.9734 1834.74 87.0237C1823.53 105.975 1805.06 149.92 1820.89 174.083C1821.55 151.578 1834.74 95.552 1882.23 51.4894C1863.76 72.2177 1833.95 127.178 1862.44 181.19H1902.01C1909.93 168.161 1922.2 131.086 1907.95 87.0237C1917.33 101.993 1932.38 132.555 1932.84 156.646L1947.52 74.5867C1951.48 100.053 1958.21 154.539 1953.46 168.753L1973.25 174.083C1975.88 165.199 1976.81 133.574 1959.4 78.1401C1971.27 94.7228 1994.22 130.376 1991.05 140.325C1998.97 120.189 2020.34 75.6527 2042.5 58.5962C2022.05 94.7228 1985.91 169.819 2004.9 181.19C2024.51 152.704 2060.37 93.3274 2065.88 57.9608C2066.04 52.9444 2066.16 48.3626 2066.24 44.3825C2066.84 48.3062 2066.67 52.8863 2065.88 57.9608C2064.79 92.5055 2061.88 147.653 2056.35 168.753C2072.84 149.801 2110.56 109.41 2129.56 99.4608C2102.52 126.704 2052 184.033 2066.24 195.404L2107.79 186.52C2100.54 175.86 2090.38 150.275 2107.79 133.218C2108.45 144.471 2113.73 168.397 2129.56 174.083L2143.41 92.3539C2142.75 110.121 2143.01 145.655 2149.34 145.655C2152.32 145.655 2161.15 136.381 2170.82 123.858C2168.38 104.772 2163.65 86.7292 2155.28 74.5867C2161.78 83.7985 2171.64 98.4549 2179.64 111.821C2185.17 103.886 2190.47 95.4875 2194.62 87.736C2197.79 78.1263 2200.57 69.3444 2202.77 62.1497C2203.95 67.4331 2200.4 76.9586 2194.62 87.736C2191.38 97.5878 2187.72 108.31 2183.86 119.084C2189.15 128.489 2192.88 136.491 2192.88 140.325C2200.73 126.226 2215.59 94.295 2212.73 78.5212C2219.32 113.021 2228.43 184.796 2212.66 198.957L2228.49 195.404V51.4894L2256.19 186.52C2261.47 168.161 2270.44 126.112 2264.11 104.791C2269.97 117.953 2278.44 140.618 2281 158.323C2286.56 126.338 2299.02 84.6717 2321.49 74.5867C2303.68 104.791 2278.75 171.24 2321.49 195.404H2349.19L2370.95 140.325C2367 166.384 2366.2 195.404 2370.95 195.404H2388.76C2388.76 171.714 2377.68 114.385 2333.36 74.5867C2351.83 87.616 2392.72 123.269 2408.55 161.646V26.6153C2414.48 69.8488 2435.85 164.133 2473.84 195.404L2481.76 99.4608C2481.1 121.374 2483.34 169.463 2497.59 186.52C2489.67 137.956 2481.76 36.5649 2513.42 19.5084C2506.82 50.3049 2497.59 117.583 2513.42 140.325C2514.73 114.267 2525.68 56.8195 2558.92 35.4989C2540.46 73.9945 2511.44 158.803 2543.09 190.073C2553.65 165.199 2573.17 104.791 2566.84 62.1497C2574.75 82.2858 2588.21 129.31 2578.71 156.316C2592.56 133.811 2619.47 78.1401 2616.3 35.4989C2622.24 75.1789 2626.59 163.423 2596.52 198.957C2615.64 187.112 2651.52 146.366 2642.03 78.1401C2647.3 97.684 2654.69 141.747 2642.03 161.646C2651.26 153.355 2666.56 121.847 2653.9 62.1497C2663.13 82.878 2680.81 127.533 2677.64 140.325C2691.49 114.267 2720.38 49.7126 2756.79 35.4989C2727.77 58.004 2685.16 129.31 2715.24 198.957C2727.77 178.821 2766.29 124.69 2740.96 55.0428C2754.15 76.9557 2759.95 122.913 2756.79 145.655C2765.34 118.225 2780.12 58.9813 2775.96 26.6753C2775.5 24.1654 2775.05 21.7717 2774.6 19.5084C2775.18 21.7073 2775.63 24.1061 2775.96 26.6753C2784.8 75.394 2793.3 167.867 2764.7 198.957C2799.02 168.141 2832.43 97.6487 2829.37 46.7688C2828.82 42.5569 2828.36 38.7556 2828.02 35.4989C2828.69 39.124 2829.14 42.8894 2829.37 46.7688C2833.65 79.7771 2843.03 138.01 2839.44 157.09C2847.63 130.263 2862.59 50.6295 2913.1 26.6153C2882.1 53.8583 2866.01 146.366 2883.42 198.957L2901.23 195.404C2892.65 169.345 2880.65 106.212 2901.23 62.1497C2898.59 91.1694 2900.44 151.696 2928.93 161.646C2949.38 129.665 2980.77 57.8855 2942.78 26.6153C2964.15 30.1036 2996.19 63.3846 2956.93 168.143C2962.51 155.495 2976.05 134.07 3000.16 117.228C2990.93 133.218 2974.44 171.24 2982.35 195.404L3000.16 198.957C3007.42 182.967 3015.99 137.838 2992.25 85.247C3006.76 104.791 3023.9 147.432 3025.88 198.957V2363H0.540474V202.51Z" fill="#6F8602"/>
<path d="M927.759 215.491C1052.58 222.187 1351.35 231.561 1547.88 215.491C1347.12 209.143 942.024 200.255 927.759 215.491Z" fill="#6F8602"/>
<path fill-rule="evenodd" clip-rule="evenodd" d="M0.540527 202.51C258.761 206.163 784.714 211.474 830.679 202.708L855.314 197.464C855.314 197.464 867.185 195.699 873.121 195.699C879.057 195.699 881.797 196.445 886.153 197.23C890.51 198.015 1375.12 196.499 1706.38 208.186C1851.67 207.578 2180.29 204.169 2332.45 195.403C2477.08 196.621 2818.25 199.786 3025.88 202.708V211.839C2802.66 205.143 2327.3 195.769 2211.6 211.839C2317.92 216.709 2629.64 224.987 3025.88 219.143V228.274C2737.28 233.753 2150.18 241.422 2110.55 228.274C1991.02 222.796 1727.38 215.126 1629.11 228.274C1430.33 232.535 1011.76 240.327 927.759 237.405C884.833 230.1 777.582 215.491 691.993 215.491L0.540527 225.608V215.491L234.328 215.491L0.540527 209.617V202.51ZM927.759 215.491C1052.58 222.187 1351.35 231.561 1547.88 215.491C1347.12 209.143 942.024 200.255 927.759 215.491Z" fill="#91B209"/>
</svg>
