<svg width="3026" height="1975" viewBox="0 0 3026 1975" fill="none" xmlns="http://www.w3.org/2000/svg">
<path d="M51.9528 85.9187C63.026 -6.49009 22.2913 -3.2827 0.540527 9.7493V1975H3025.88V11.2808C3014.68 16.6121 2984.75 33.3167 2954.7 57.4852C2924.64 81.6536 2897.36 71.1096 2887.47 62.8165C2865.72 35.5677 2813.12 -3.64676 2776.74 57.4852C2740.35 118.617 2714.12 109.021 2705.55 96.5812C2685.12 70.5172 2638.32 24.0759 2614.59 46.8226C2590.87 69.5694 2561.21 46.8226 2549.34 32.6059C2520.34 12.4655 2439.01 -14.3093 2345.68 39.7143C2252.34 93.7378 2173.65 83.5492 2145.96 71.7019C2114.98 46.8226 2043.14 10.2146 2003.59 62.8165C1964.05 115.418 1913.3 100.135 1892.86 85.9187C1882.98 76.4408 1858.46 61.7502 1839.47 78.8103C1820.49 95.8704 1803.88 90.6576 1797.95 85.9187C1789.38 76.4408 1766.71 61.7502 1744.56 78.8103C1722.42 95.8704 1706.33 90.6576 1701.06 85.9187C1681.29 42.6761 1621.18 -31.7248 1538.92 16.6121C1456.66 64.949 1418.96 67.5554 1410.39 62.8165C1389.3 48.0074 1336.83 26.2084 1295.7 57.4852C1254.58 88.762 1232.43 74.0714 1226.5 62.8165C1221.22 51.5616 1200.4 35.8047 1159.27 62.8165C1118.14 89.8283 1051.17 84.7339 1022.83 78.8103C950.987 49.7845 791.876 4.8833 730.183 57.4852C668.49 110.087 660.976 60.447 664.93 29.0517H585.837C566.854 57.4852 544.971 55.1157 536.403 50.3768C529.153 43.8608 511.093 34.7384 496.856 50.3768C482.619 66.0152 471.15 61.6317 467.196 57.4852C426.067 34.7384 409.194 44.4532 407.875 50.3768C357.255 108.665 324.827 111.39 314.94 105.467C237.428 48.5997 210.141 53.3386 206.186 62.8165C171.385 105.467 152.138 91.2499 146.866 78.8103C112.064 14.835 92.818 24.9052 87.5451 37.9372C70.1444 118.973 56.5667 103.69 51.9528 85.9187Z" fill="#804122"/>
<path d="M316.566 341.673C325.409 328.455 337.087 330.719 351.684 333.548C361.006 338.894 359.421 343.527 351.609 346.806C346.722 349.546 307.921 354.594 316.566 341.673Z" fill="#5A260D"/>
<path d="M625.955 414.358C623.353 409.374 646.476 403.404 661.074 406.233C670.396 411.579 657.102 419.473 649.289 422.751C644.402 425.491 632.894 427.648 625.955 414.358Z" fill="#5A260D"/>
<path d="M538.824 317.835C538.903 303.993 547.627 311.798 562.224 314.628C571.546 319.974 569.97 322.95 562.158 326.228C547.498 334.447 538.805 321.149 538.824 317.835Z" fill="#5A260D"/>
<path d="M740.936 239.213C749.751 230.967 749.738 233.177 764.336 236.006C773.658 241.352 772.082 244.328 764.27 247.607C749.609 255.826 737.912 242.041 740.936 239.213Z" fill="#5A260D"/>
<path d="M618.875 117.67C618.875 117.67 627.677 111.634 642.275 114.463C651.597 119.809 650.021 122.785 642.208 126.064C627.548 134.283 618.875 117.67 618.875 117.67Z" fill="#5A260D"/>
<path d="M50.33 388.512C56.2221 380.253 53.2966 380.792 67.8939 383.621C77.216 388.967 66.8725 391.903 59.0601 395.181C44.3998 403.4 48.1417 391.579 50.33 388.512Z" fill="#9A502B"/>
<path d="M460.635 189.864C466.527 181.605 475.311 178.883 489.908 181.712C499.231 187.058 491.781 194.979 483.969 198.258C478.048 211.489 458.447 192.932 460.635 189.864Z" fill="#9A502B"/>
<path d="M948.484 231.88C942.686 223.567 963.16 220.899 977.757 223.728C987.079 229.074 979.63 236.995 971.818 240.273C957.157 248.493 954.282 240.193 948.484 231.88Z" fill="#9A502B"/>
<path d="M915.449 387.513C921.341 379.254 930.125 376.532 944.722 379.361C944.647 392.619 946.595 392.628 938.783 395.907C924.123 404.126 913.261 390.581 915.449 387.513Z" fill="#9A502B"/>
<path d="M1002.92 424.376C1017.02 420.449 1017.6 413.394 1032.19 416.224C1041.52 421.57 1039.88 434.489 1032.07 437.768C1017.41 445.987 991.211 427.636 1002.92 424.376Z" fill="#9A502B"/>
<path d="M839.791 329.161C845.684 320.901 842.758 321.44 857.355 324.269C866.677 329.616 856.334 332.551 848.521 335.83C833.861 344.049 837.603 332.228 839.791 329.161Z" fill="#9A502B"/>
<path d="M1713.06 242.771C1708.02 259.183 1701.3 256.447 1692.9 253.028C1687.52 246.463 1688.41 240.719 1692.9 236.616C1695.7 233.197 1717.99 226.727 1713.06 242.771Z" fill="#5A260D"/>
<path d="M1534.95 154.554C1536.46 160.709 1523.18 168.231 1514.78 164.812C1509.41 158.247 1517.02 148.399 1521.5 144.296C1524.3 140.877 1530.91 138.142 1534.95 154.554Z" fill="#5A260D"/>
<path d="M1585.36 273.543C1585.36 290.678 1580.31 281.066 1571.91 277.647C1566.54 271.082 1567.43 267.389 1571.91 263.286C1580.32 253.028 1585.36 269.44 1585.36 273.543Z" fill="#5A260D"/>
<path d="M1469.41 372.017C1464.37 382.275 1464.37 379.54 1455.97 376.121C1450.6 369.556 1451.49 365.863 1455.97 361.76C1464.37 351.502 1471.14 368.499 1469.41 372.017Z" fill="#5A260D"/>
<path d="M1539.99 521.78C1539.99 521.78 1534.95 529.302 1526.55 525.883C1521.17 519.318 1522.06 515.625 1526.55 511.522C1534.95 501.265 1539.99 521.78 1539.99 521.78Z" fill="#5A260D"/>
<path d="M1865.97 183.276C1862.61 193.533 1864.29 192.849 1855.89 189.43C1850.51 182.865 1856.45 179.173 1860.93 175.069C1869.33 164.812 1867.22 179.466 1865.97 183.276Z" fill="#9A502B"/>
<path d="M1630.73 431.512C1627.37 441.77 1622.33 445.189 1613.92 441.77C1608.55 435.205 1612.8 425.358 1617.28 421.255C1620.64 404.842 1631.97 427.703 1630.73 431.512Z" fill="#9A502B"/>
<path d="M1350.11 382.275C1353.48 392.533 1341.71 395.952 1333.31 392.533C1327.93 385.968 1332.19 376.121 1336.67 372.017C1345.07 361.76 1346.75 372.017 1350.11 382.275Z" fill="#9A502B"/>
<path d="M1368.6 189.43C1365.24 199.688 1360.2 203.107 1351.8 199.688C1351.8 183.276 1350.68 183.276 1355.16 179.173C1363.56 168.915 1369.85 185.621 1368.6 189.43Z" fill="#9A502B"/>
<path d="M1318.19 144.296C1310.1 149.237 1309.79 157.973 1301.39 154.554C1296.01 147.989 1296.91 131.987 1301.39 127.884C1309.79 117.626 1324.91 140.193 1318.19 144.296Z" fill="#9A502B"/>
<path d="M1412.29 261.234C1408.93 271.492 1410.61 270.808 1402.2 267.389C1396.83 260.824 1402.76 257.131 1407.25 253.028C1415.65 242.771 1413.53 257.425 1412.29 261.234Z" fill="#9A502B"/>
<path d="M2092.75 410.841C2099.03 395.659 2110.8 396.516 2125.53 397.587C2135.56 402.023 2134.84 407.144 2127.8 411.653C2123.53 415.203 2086.61 425.683 2092.75 410.841Z" fill="#5A260D"/>
<path d="M2407.09 447.02C2403.67 442.08 2425.15 432.694 2439.87 433.765C2449.9 438.201 2438.34 448.327 2431.31 452.836C2427.03 456.386 2416.2 460.193 2407.09 447.02Z" fill="#5A260D"/>
<path d="M2305.1 356.199C2302.73 341.513 2312.61 348.636 2327.33 349.707C2337.36 354.143 2336.35 357.506 2329.32 362.015C2316.49 372.666 2305.67 359.715 2305.1 356.199Z" fill="#5A260D"/>
<path d="M2488.12 246.137C2495.25 236.23 2495.63 238.574 2510.35 239.645C2520.38 244.081 2519.37 247.444 2512.34 251.953C2499.51 262.604 2485.67 249.535 2488.12 246.137Z" fill="#5A260D"/>
<path d="M2347.66 133.405C2347.66 133.405 2355.17 125.843 2369.9 126.913C2379.93 131.349 2378.92 134.713 2371.89 139.221C2359.06 149.872 2347.66 133.405 2347.66 133.405Z" fill="#5A260D"/>
<path d="M1841.62 495.68C1845.9 486.145 1843.14 487.103 1857.87 488.174C1867.9 492.61 1858.34 497.089 1851.31 501.597C1838.48 512.248 1840.03 499.221 1841.62 495.68Z" fill="#9A502B"/>
<path d="M2206.26 230.855C2210.53 221.32 2218.61 217.274 2233.34 218.345C2243.37 222.781 2237.51 232.163 2230.48 236.671C2227.05 251.481 2204.67 234.397 2206.26 230.855Z" fill="#9A502B"/>
<path d="M2689.06 210.937C2681.94 202.89 2701.41 197.356 2716.14 198.426C2726.17 202.863 2720.31 212.245 2713.28 216.753C2700.45 227.404 2696.18 218.985 2689.06 210.937Z" fill="#9A502B"/>
<path d="M2684.42 380.306C2688.7 370.771 2696.78 366.725 2711.5 367.795C2713.78 381.861 2715.68 381.613 2708.64 386.122C2695.81 396.773 2682.83 383.847 2684.42 380.306Z" fill="#9A502B"/>
<path d="M2776.18 407.829C2789.22 401.804 2788.54 394.248 2803.26 395.319C2813.29 399.755 2813.99 413.668 2806.96 418.176C2794.13 428.827 2765.35 412.834 2776.18 407.829Z" fill="#9A502B"/>
<path d="M2600.37 328.437C2604.65 318.902 2601.89 319.86 2616.62 320.931C2626.65 325.367 2617.09 329.846 2610.06 334.355C2597.23 345.006 2598.78 331.979 2600.37 328.437Z" fill="#9A502B"/>
<path d="M2645.62 734.656C2636.42 715.456 2624.27 718.743 2609.08 722.853C2599.38 730.619 2601.03 737.349 2609.16 742.111C2614.24 746.091 2654.61 753.424 2645.62 734.656Z" fill="#5A260D"/>
<path d="M2323.76 840.236C2326.47 832.996 2302.42 824.324 2287.23 828.433C2277.53 836.199 2291.36 847.666 2299.49 852.428C2304.57 856.408 2316.55 859.541 2323.76 840.236Z" fill="#5A260D"/>
<path d="M2414.4 700.028C2414.32 679.922 2405.25 691.26 2390.06 695.37C2380.36 703.135 2382 707.458 2390.13 712.221C2405.38 724.16 2414.42 704.843 2414.4 700.028Z" fill="#5A260D"/>
<path d="M2204.15 585.824C2194.98 573.846 2195 577.056 2179.81 581.165C2170.11 588.931 2171.75 593.254 2179.88 598.016C2195.13 609.955 2207.3 589.932 2204.15 585.824Z" fill="#5A260D"/>
<path d="M2331.13 409.273C2331.13 409.273 2321.97 400.505 2306.79 404.615C2297.09 412.38 2298.73 416.703 2306.86 421.466C2322.11 433.405 2331.13 409.273 2331.13 409.273Z" fill="#5A260D"/>
<path d="M2922.57 802.693C2916.44 790.695 2919.49 791.478 2904.3 795.588C2894.61 803.354 2905.37 807.618 2913.49 812.38C2928.74 824.319 2924.85 807.148 2922.57 802.693Z" fill="#9A502B"/>
<path d="M2495.74 514.141C2489.61 502.143 2480.48 498.19 2465.29 502.299C2455.59 510.065 2463.34 521.571 2471.47 526.333C2477.63 545.553 2498.02 518.597 2495.74 514.141Z" fill="#9A502B"/>
<path d="M1988.24 575.172C1994.28 563.097 1972.98 559.221 1957.79 563.331C1948.09 571.096 1955.84 582.602 1963.97 587.364C1979.22 599.303 1982.21 587.247 1988.24 575.172Z" fill="#9A502B"/>
<path d="M2022.61 801.242C2016.48 789.245 2007.34 785.291 1992.16 789.401C1992.24 808.659 1990.21 808.672 1998.34 813.435C2013.59 825.374 2024.89 805.698 2022.61 801.242Z" fill="#9A502B"/>
<path d="M1931.62 854.788C1916.95 849.084 1916.35 838.837 1901.16 842.946C1891.47 850.712 1893.16 869.478 1901.29 874.241C1916.54 886.18 1943.8 859.524 1931.62 854.788Z" fill="#9A502B"/>
<path d="M2101.32 716.48C2095.19 704.483 2098.23 705.266 2083.04 709.375C2073.35 717.141 2084.11 721.405 2092.23 726.168C2107.48 738.107 2103.59 720.936 2101.32 716.48Z" fill="#9A502B"/>
<path d="M1193.19 590.943C1198.43 614.813 1205.42 610.835 1214.15 605.862C1219.74 596.314 1218.81 587.959 1214.15 581.992C1211.24 577.019 1188.07 567.608 1193.19 590.943Z" fill="#5A260D"/>
<path d="M1378.35 462.64C1376.78 471.592 1390.58 482.532 1399.31 477.559C1404.9 468.011 1396.98 453.689 1392.32 447.721C1389.41 442.748 1382.54 438.77 1378.35 462.64Z" fill="#5A260D"/>
<path d="M1325.95 635.699C1325.95 660.621 1331.19 646.64 1339.92 641.667C1345.51 632.119 1344.58 626.748 1339.92 620.78C1331.19 605.862 1325.95 629.732 1325.95 635.699Z" fill="#5A260D"/>
<path d="M1446.47 778.921C1451.71 793.839 1451.71 789.861 1460.45 784.888C1466.04 775.34 1465.11 769.969 1460.45 764.002C1451.71 749.083 1444.68 773.803 1446.47 778.921Z" fill="#5A260D"/>
<path d="M1373.11 996.736C1373.11 996.736 1378.35 1007.68 1387.08 1002.7C1392.67 993.156 1391.74 987.785 1387.08 981.817C1378.35 966.898 1373.11 996.736 1373.11 996.736Z" fill="#5A260D"/>
<path d="M1034.23 504.413C1037.73 519.332 1035.98 518.337 1044.71 513.365C1050.3 503.816 1044.13 498.446 1039.47 492.478C1030.74 477.559 1032.94 498.872 1034.23 504.413Z" fill="#9A502B"/>
<path d="M1278.78 865.45C1282.28 880.369 1287.52 885.342 1296.25 880.369C1301.84 870.821 1297.41 856.499 1292.76 850.531C1289.26 826.661 1277.48 859.909 1278.78 865.45Z" fill="#9A502B"/>
<path d="M1570.49 793.839C1567 808.758 1579.23 813.731 1587.96 808.758C1593.55 799.21 1589.13 784.888 1584.47 778.921C1575.73 764.002 1573.99 778.921 1570.49 793.839Z" fill="#9A502B"/>
<path d="M1551.28 513.365C1554.77 528.283 1560.01 533.256 1568.75 528.283C1568.75 504.413 1569.91 504.413 1565.25 498.446C1556.52 483.527 1549.98 507.824 1551.28 513.365Z" fill="#9A502B"/>
<path d="M1603.68 447.721C1612.1 454.907 1612.42 467.613 1621.15 462.64C1626.74 453.092 1625.81 429.819 1621.15 423.851C1612.42 408.932 1596.69 441.754 1603.68 447.721Z" fill="#9A502B"/>
<path d="M1505.86 617.797C1509.36 632.716 1507.61 631.721 1516.34 626.748C1521.93 617.2 1515.76 611.829 1511.1 605.862C1502.37 590.943 1504.56 612.256 1505.86 617.797Z" fill="#9A502B"/>
<path d="M797.891 835.128C791.362 813.075 779.108 814.319 763.79 815.874C753.356 822.318 754.109 829.758 761.425 836.306C765.874 841.464 804.275 856.686 797.891 835.128Z" fill="#5A260D"/>
<path d="M470.891 887.68C474.446 880.504 452.107 866.871 436.789 868.426C426.355 874.87 438.377 889.579 445.692 896.128C450.141 901.285 461.409 906.816 470.891 887.68Z" fill="#5A260D"/>
<path d="M576.988 755.755C579.457 734.423 569.177 744.77 553.859 746.325C543.425 752.769 544.475 757.654 551.79 764.203C565.137 779.675 576.397 760.863 576.988 755.755Z" fill="#5A260D"/>
<path d="M386.595 595.882C379.179 581.491 378.784 584.896 363.467 586.451C353.033 592.895 354.082 597.781 361.397 604.329C374.744 619.801 389.139 600.818 386.595 595.882Z" fill="#5A260D"/>
<path d="M532.708 432.13C532.708 432.13 524.897 421.144 509.579 422.699C499.145 429.143 500.194 434.029 507.51 440.578C520.856 456.049 532.708 432.13 532.708 432.13Z" fill="#5A260D"/>
<path d="M1059.14 958.363C1054.69 944.512 1057.55 945.904 1042.23 947.459C1031.8 953.903 1041.74 960.409 1049.06 966.958C1062.41 982.43 1060.79 963.507 1059.14 958.363Z" fill="#9A502B"/>
<path d="M679.812 573.684C675.361 559.833 666.958 553.956 651.641 555.511C641.207 561.955 647.299 575.583 654.614 582.132C658.179 603.644 681.466 578.828 679.812 573.684Z" fill="#9A502B"/>
<path d="M177.564 544.751C184.972 533.062 164.71 525.023 149.392 526.578C138.958 533.022 145.05 546.65 152.365 553.199C165.712 568.671 170.155 556.441 177.564 544.751Z" fill="#9A502B"/>
<path d="M182.387 790.773C177.936 776.922 169.533 771.045 154.216 772.6C151.85 793.032 149.874 792.672 157.189 799.221C170.536 814.692 184.04 795.917 182.387 790.773Z" fill="#9A502B"/>
<path d="M86.9331 830.753C73.3638 822 74.0792 811.025 58.7615 812.58C48.3274 819.024 47.6027 839.233 54.918 845.782C68.2648 861.254 98.2018 838.022 86.9331 830.753Z" fill="#9A502B"/>
<path d="M269.825 715.429C265.373 701.579 268.239 702.97 252.922 704.526C242.488 710.97 252.432 717.476 259.747 724.025C273.094 739.496 271.478 720.574 269.825 715.429Z" fill="#9A502B"/>
<path d="M322.385 1297.19C331.584 1283.97 343.732 1286.23 358.918 1289.06C368.615 1294.41 366.966 1299.04 358.839 1302.32C353.756 1305.06 313.392 1310.11 322.385 1297.19Z" fill="#5A260D"/>
<path d="M644.236 1369.87C641.529 1364.89 665.584 1358.92 680.769 1361.74C690.467 1367.09 676.637 1374.99 668.51 1378.26C663.426 1381 651.454 1383.16 644.236 1369.87Z" fill="#5A260D"/>
<path d="M553.595 1273.35C553.677 1259.51 562.752 1267.31 577.938 1270.14C587.635 1275.49 585.996 1278.46 577.869 1281.74C562.618 1289.96 553.576 1276.66 553.595 1273.35Z" fill="#5A260D"/>
<path d="M763.848 1194.73C773.018 1186.48 773.005 1188.69 788.19 1191.52C797.888 1196.86 796.248 1199.84 788.121 1203.12C772.871 1211.34 760.702 1197.55 763.848 1194.73Z" fill="#5A260D"/>
<path d="M636.87 1073.18C636.87 1073.18 646.027 1067.15 661.213 1069.98C670.91 1075.32 669.271 1078.3 661.144 1081.58C645.893 1089.8 636.87 1073.18 636.87 1073.18Z" fill="#5A260D"/>
<path d="M45.4257 1344.02C51.5552 1335.76 48.5118 1336.3 63.697 1339.13C73.3947 1344.48 62.6345 1347.41 54.5074 1350.69C39.2567 1358.91 43.1492 1347.09 45.4257 1344.02Z" fill="#9A502B"/>
<path d="M472.257 1145.38C478.387 1137.12 487.524 1134.4 502.709 1137.22C512.407 1142.57 504.658 1150.49 496.531 1153.77C490.372 1167 469.981 1148.44 472.257 1145.38Z" fill="#9A502B"/>
<path d="M979.755 1187.39C973.724 1179.08 995.022 1176.41 1010.21 1179.24C1019.91 1184.59 1012.16 1192.51 1004.03 1195.79C988.778 1204 985.787 1195.71 979.755 1187.39Z" fill="#9A502B"/>
<path d="M945.39 1343.03C951.52 1334.77 960.657 1332.04 975.842 1334.87C975.764 1348.13 977.791 1348.14 969.664 1351.42C954.413 1359.64 943.114 1346.09 945.39 1343.03Z" fill="#9A502B"/>
<path d="M1036.38 1379.89C1051.05 1375.96 1051.65 1368.91 1066.84 1371.74C1076.53 1377.08 1074.84 1390 1066.71 1393.28C1051.46 1401.5 1024.2 1383.15 1036.38 1379.89Z" fill="#9A502B"/>
<path d="M866.685 1284.67C872.814 1276.41 869.771 1276.95 884.956 1279.78C894.654 1285.13 883.894 1288.06 875.767 1291.34C860.516 1299.56 864.408 1287.74 866.685 1284.67Z" fill="#9A502B"/>
<path d="M1774.81 1198.38C1769.57 1214.77 1762.58 1212.04 1753.85 1208.62C1748.26 1202.06 1749.19 1196.33 1753.85 1192.23C1756.76 1188.82 1779.93 1182.35 1774.81 1198.38Z" fill="#5A260D"/>
<path d="M1589.65 1110.28C1591.22 1116.43 1577.42 1123.94 1568.69 1120.52C1563.1 1113.97 1571.02 1104.13 1575.68 1100.03C1578.59 1096.62 1585.46 1093.89 1589.65 1110.28Z" fill="#5A260D"/>
<path d="M1642.05 1229.11C1642.05 1246.22 1636.81 1236.62 1628.08 1233.21C1622.49 1226.65 1623.42 1222.96 1628.08 1218.86C1636.81 1208.62 1642.05 1225.01 1642.05 1229.11Z" fill="#5A260D"/>
<path d="M1521.53 1327.45C1516.29 1337.69 1516.29 1334.96 1507.55 1331.55C1501.96 1324.99 1502.89 1321.3 1507.55 1317.21C1516.29 1306.96 1523.32 1323.94 1521.53 1327.45Z" fill="#5A260D"/>
<path d="M1594.89 1477.01C1594.89 1477.01 1589.65 1484.52 1580.92 1481.11C1575.33 1474.55 1576.26 1470.87 1580.92 1466.77C1589.65 1456.52 1594.89 1477.01 1594.89 1477.01Z" fill="#5A260D"/>
<path d="M1933.77 1138.96C1930.27 1149.21 1932.02 1148.52 1923.29 1145.11C1917.7 1138.55 1923.87 1134.86 1928.53 1130.77C1937.26 1120.52 1935.06 1135.16 1933.77 1138.96Z" fill="#9A502B"/>
<path d="M1689.22 1386.87C1685.72 1397.11 1680.48 1400.52 1671.75 1397.11C1666.16 1390.55 1670.59 1380.72 1675.24 1376.62C1678.74 1360.23 1690.52 1383.06 1689.22 1386.87Z" fill="#9A502B"/>
<path d="M1397.51 1337.69C1401 1347.94 1388.77 1351.35 1380.04 1347.94C1374.45 1341.38 1378.87 1331.55 1383.53 1327.45C1392.27 1317.21 1394.01 1327.45 1397.51 1337.69Z" fill="#9A502B"/>
<path d="M1416.72 1145.11C1413.23 1155.35 1407.99 1158.77 1399.25 1155.35C1399.25 1138.96 1398.09 1138.96 1402.75 1134.86C1411.48 1124.62 1418.02 1141.3 1416.72 1145.11Z" fill="#9A502B"/>
<path d="M1364.32 1100.03C1355.9 1104.97 1355.58 1113.69 1346.85 1110.28C1341.26 1103.72 1342.19 1087.74 1346.85 1083.64C1355.58 1073.4 1371.31 1095.94 1364.32 1100.03Z" fill="#9A502B"/>
<path d="M1462.14 1216.82C1458.64 1227.06 1460.39 1226.38 1451.66 1222.96C1446.07 1216.41 1452.24 1212.72 1456.9 1208.62C1465.63 1198.38 1463.44 1213.01 1462.14 1216.82Z" fill="#9A502B"/>
<path d="M2170.11 1366.35C2176.64 1351.17 2188.89 1352.03 2204.21 1353.1C2214.64 1357.53 2213.89 1362.66 2206.58 1367.16C2202.13 1370.72 2163.73 1381.19 2170.11 1366.35Z" fill="#5A260D"/>
<path d="M2497.11 1402.53C2493.55 1397.59 2515.89 1388.21 2531.21 1389.28C2541.65 1393.71 2529.62 1403.84 2522.31 1408.35C2517.86 1411.9 2506.59 1415.71 2497.11 1402.53Z" fill="#5A260D"/>
<path d="M2391.01 1311.71C2388.54 1297.03 2398.82 1304.15 2414.14 1305.22C2424.57 1309.66 2423.53 1313.02 2416.21 1317.53C2402.86 1328.18 2391.6 1315.23 2391.01 1311.71Z" fill="#5A260D"/>
<path d="M2581.4 1201.65C2588.82 1191.74 2589.22 1194.09 2604.53 1195.16C2614.97 1199.59 2613.92 1202.96 2606.6 1207.46C2593.26 1218.12 2578.86 1205.05 2581.4 1201.65Z" fill="#5A260D"/>
<path d="M2435.29 1088.92C2435.29 1088.92 2443.1 1081.35 2458.42 1082.43C2468.86 1086.86 2467.81 1090.22 2460.49 1094.73C2447.14 1105.38 2435.29 1088.92 2435.29 1088.92Z" fill="#5A260D"/>
<path d="M1908.86 1451.19C1913.31 1441.66 1910.45 1442.61 1925.77 1443.69C1936.2 1448.12 1926.26 1452.6 1918.94 1457.11C1905.59 1467.76 1907.21 1454.73 1908.86 1451.19Z" fill="#9A502B"/>
<path d="M2288.19 1186.37C2292.64 1176.83 2301.04 1172.79 2316.36 1173.86C2326.79 1178.29 2320.7 1187.67 2313.39 1192.18C2309.82 1206.99 2286.53 1189.91 2288.19 1186.37Z" fill="#9A502B"/>
<path d="M2790.44 1166.45C2783.03 1158.4 2803.29 1152.87 2818.61 1153.94C2829.04 1158.37 2822.95 1167.76 2815.63 1172.27C2802.29 1182.92 2797.84 1174.5 2790.44 1166.45Z" fill="#9A502B"/>
<path d="M2785.61 1335.82C2790.06 1326.28 2798.47 1322.24 2813.78 1323.31C2816.15 1337.37 2818.13 1337.13 2810.81 1341.63C2797.46 1352.29 2783.96 1339.36 2785.61 1335.82Z" fill="#9A502B"/>
<path d="M2881.07 1363.34C2894.64 1357.32 2893.92 1349.76 2909.24 1350.83C2919.67 1355.27 2920.4 1369.18 2913.08 1373.69C2899.74 1384.34 2869.8 1368.35 2881.07 1363.34Z" fill="#9A502B"/>
<path d="M2698.18 1283.95C2702.63 1274.41 2699.76 1275.37 2715.08 1276.44C2725.51 1280.88 2715.57 1285.36 2708.25 1289.87C2694.91 1300.52 2696.52 1287.49 2698.18 1283.95Z" fill="#9A502B"/>
<path d="M2591.04 1531.24C2582.2 1550.95 2570.52 1547.58 2555.92 1543.36C2546.6 1535.38 2548.18 1528.48 2556 1523.59C2560.88 1519.5 2599.68 1511.97 2591.04 1531.24Z" fill="#5A260D"/>
<path d="M2281.65 1422.85C2284.25 1430.28 2261.13 1439.18 2246.53 1434.96C2237.21 1426.99 2250.5 1415.22 2258.32 1410.33C2263.2 1406.24 2274.71 1403.03 2281.65 1422.85Z" fill="#5A260D"/>
<path d="M2368.78 1566.79C2368.7 1587.43 2359.98 1575.79 2345.38 1571.57C2336.06 1563.6 2337.63 1559.16 2345.45 1554.27C2360.11 1542.02 2368.8 1561.85 2368.78 1566.79Z" fill="#5A260D"/>
<path d="M2166.67 1684.04C2157.85 1696.33 2157.87 1693.04 2143.27 1688.82C2133.95 1680.85 2135.52 1676.41 2143.34 1671.52C2158 1659.26 2169.69 1679.82 2166.67 1684.04Z" fill="#5A260D"/>
<path d="M2288.73 1865.29C2288.73 1865.29 2279.93 1874.29 2265.33 1870.07C2256.01 1862.1 2257.58 1857.66 2265.4 1852.77C2280.06 1840.52 2288.73 1865.29 2288.73 1865.29Z" fill="#5A260D"/>
<path d="M2857.28 1461.39C2851.38 1473.71 2854.31 1472.9 2839.71 1468.68C2830.39 1460.71 2840.73 1456.33 2848.55 1451.44C2863.21 1439.19 2859.46 1456.82 2857.28 1461.39Z" fill="#9A502B"/>
<path d="M2446.97 1757.63C2441.08 1769.95 2432.29 1774.01 2417.7 1769.79C2408.37 1761.81 2415.82 1750 2423.64 1745.11C2429.56 1725.38 2449.16 1753.06 2446.97 1757.63Z" fill="#9A502B"/>
<path d="M1959.12 1694.97C1964.92 1707.37 1944.45 1711.35 1929.85 1707.13C1920.53 1699.16 1927.98 1687.35 1935.79 1682.46C1950.45 1670.2 1953.32 1682.58 1959.12 1694.97Z" fill="#9A502B"/>
<path d="M1992.16 1462.88C1986.26 1475.2 1977.48 1479.26 1962.88 1475.04C1962.96 1455.26 1961.01 1455.25 1968.82 1450.36C1983.48 1438.1 1994.34 1458.3 1992.16 1462.88Z" fill="#9A502B"/>
<path d="M1904.69 1407.91C1890.59 1413.76 1890.01 1424.28 1875.41 1420.06C1866.09 1412.09 1867.72 1392.83 1875.53 1387.94C1890.2 1375.68 1916.39 1403.04 1904.69 1407.91Z" fill="#9A502B"/>
<path d="M2067.81 1549.9C2061.92 1562.22 2064.85 1561.41 2050.25 1557.19C2040.93 1549.22 2051.27 1544.84 2059.08 1539.95C2073.74 1527.7 2070 1545.33 2067.81 1549.9Z" fill="#9A502B"/>
<path d="M1166.24 1689.67C1171.29 1665.18 1178.01 1669.26 1186.42 1674.36C1191.8 1684.16 1190.91 1692.73 1186.42 1698.85C1183.62 1703.95 1161.31 1713.6 1166.24 1689.67Z" fill="#5A260D"/>
<path d="M1344.52 1821.26C1343 1812.08 1356.29 1800.86 1364.7 1805.96C1370.08 1815.76 1362.46 1830.45 1357.97 1836.57C1355.17 1841.67 1348.55 1845.75 1344.52 1821.26Z" fill="#5A260D"/>
<path d="M1294.06 1643.76C1294.06 1618.2 1299.11 1632.54 1307.52 1637.64C1312.9 1647.43 1312 1652.94 1307.52 1659.06C1299.11 1674.36 1294.06 1649.88 1294.06 1643.76Z" fill="#5A260D"/>
<path d="M1410.11 1496.86C1415.15 1481.56 1415.15 1485.64 1423.56 1490.74C1428.95 1500.53 1428.05 1506.04 1423.56 1512.16C1415.15 1527.46 1408.38 1502.11 1410.11 1496.86Z" fill="#5A260D"/>
<path d="M1339.47 1273.45C1339.47 1273.45 1344.52 1262.23 1352.93 1267.33C1358.31 1277.12 1357.41 1282.63 1352.93 1288.75C1344.52 1304.05 1339.47 1273.45 1339.47 1273.45Z" fill="#5A260D"/>
<path d="M1013.19 1778.42C1016.55 1763.12 1014.87 1764.14 1023.28 1769.24C1028.66 1779.03 1022.72 1784.54 1018.23 1790.66C1009.82 1805.96 1011.94 1784.1 1013.19 1778.42Z" fill="#9A502B"/>
<path d="M1248.65 1408.11C1252.01 1392.81 1257.06 1387.71 1265.47 1392.81C1270.85 1402.6 1266.59 1417.29 1262.1 1423.41C1258.74 1447.89 1247.4 1413.79 1248.65 1408.11Z" fill="#9A502B"/>
<path d="M1529.52 1481.56C1526.15 1466.26 1537.93 1461.16 1546.34 1466.26C1551.72 1476.05 1547.46 1490.74 1542.97 1496.86C1534.56 1512.16 1532.88 1496.86 1529.52 1481.56Z" fill="#9A502B"/>
<path d="M1511.02 1769.24C1514.38 1753.94 1519.43 1748.83 1527.84 1753.94C1527.84 1778.42 1528.96 1778.42 1524.47 1784.54C1516.06 1799.84 1509.77 1774.92 1511.02 1769.24Z" fill="#9A502B"/>
<path d="M1561.47 1836.57C1569.57 1829.2 1569.88 1816.16 1578.29 1821.26C1583.67 1831.06 1582.78 1854.93 1578.29 1861.05C1569.88 1876.35 1554.75 1842.69 1561.47 1836.57Z" fill="#9A502B"/>
<path d="M1467.29 1662.12C1470.65 1646.82 1468.97 1647.84 1477.38 1652.94C1482.76 1662.73 1476.82 1668.24 1472.34 1674.36C1463.93 1689.67 1466.04 1667.81 1467.29 1662.12Z" fill="#9A502B"/>
<path d="M814.857 1428.09C808.58 1450.73 796.8 1449.45 782.076 1447.86C772.046 1441.24 772.77 1433.6 779.802 1426.88C784.079 1421.59 820.993 1405.96 814.857 1428.09Z" fill="#5A260D"/>
<path d="M500.517 1374.14C503.935 1381.51 482.46 1395.5 467.736 1393.91C457.706 1387.29 469.262 1372.19 476.294 1365.47C480.571 1360.17 491.403 1354.49 500.517 1374.14Z" fill="#5A260D"/>
<path d="M602.506 1509.58C604.88 1531.48 594.998 1520.86 580.273 1519.26C570.243 1512.64 571.252 1507.63 578.284 1500.91C591.114 1485.02 601.938 1504.33 602.506 1509.58Z" fill="#5A260D"/>
<path d="M419.486 1673.71C412.356 1688.49 411.977 1684.99 397.252 1683.39C387.222 1676.78 388.231 1671.76 395.263 1665.04C408.093 1649.15 421.931 1668.64 419.486 1673.71Z" fill="#5A260D"/>
<path d="M559.941 1841.83C559.941 1841.83 552.432 1853.1 537.707 1851.51C527.677 1844.89 528.686 1839.88 535.718 1833.15C548.548 1817.27 559.941 1841.83 559.941 1841.83Z" fill="#5A260D"/>
<path d="M1065.99 1301.57C1061.71 1315.79 1064.46 1314.36 1049.74 1312.77C1039.71 1306.15 1049.27 1299.47 1056.3 1292.75C1069.13 1276.86 1067.58 1296.29 1065.99 1301.57Z" fill="#9A502B"/>
<path d="M701.35 1696.5C697.07 1710.72 688.993 1716.75 674.269 1715.16C664.239 1708.54 670.095 1694.55 677.127 1687.83C680.554 1665.74 702.939 1691.22 701.35 1696.5Z" fill="#9A502B"/>
<path d="M218.547 1726.2C225.669 1738.21 206.191 1746.46 191.466 1744.86C181.436 1738.25 187.292 1724.25 194.325 1717.53C207.155 1701.65 211.426 1714.2 218.547 1726.2Z" fill="#9A502B"/>
<path d="M223.184 1473.63C218.905 1487.85 210.828 1493.88 196.103 1492.28C193.829 1471.31 191.929 1471.68 198.961 1464.95C211.791 1449.07 224.773 1468.35 223.184 1473.63Z" fill="#9A502B"/>
<path d="M131.426 1432.58C118.382 1441.57 119.069 1452.84 104.345 1451.24C94.3148 1444.62 93.6181 1423.88 100.65 1417.15C113.48 1401.27 142.258 1425.12 131.426 1432.58Z" fill="#9A502B"/>
<path d="M307.236 1550.98C302.957 1565.2 305.712 1563.77 290.987 1562.17C280.957 1555.56 290.517 1548.88 297.549 1542.15C310.379 1526.27 308.825 1545.7 307.236 1550.98Z" fill="#9A502B"/>
</svg>
