<svg width="3026" height="2134" viewBox="0 0 3026 2134" fill="none" xmlns="http://www.w3.org/2000/svg">
<path d="M693.065 1.49147C628.166 -1.35128 204.341 6.22939 0.540527 10.3751V415.467H3025.88V13.9285C2831.18 25.2995 2348.53 22.2198 2131.54 19.2586C1996.99 2.20212 1628.3 12.1517 1460.78 19.2586C1183.77 33.4723 949.629 25.181 867.185 19.2586C784.874 7.88762 716.809 2.67594 693.065 1.49147Z" fill="#723F22"/>
<path d="M2020.73 92.1041C2085.63 114.846 2717.87 92.1041 3025.88 77.8903V2134H0.540527V77.8904C218.983 59.4125 456.947 63.6766 550.603 67.23C924.17 114.135 1168.6 92.1041 1243.13 77.8903C1567.62 45.1987 1897.4 74.9291 2020.73 92.1041Z" fill="#AD6437"/>
<path d="M121.238 82.7L69.793 73.8163L141.024 68.4861L190.48 67.2302C190.484 67.2301 190.487 67.23 190.49 67.23C259.083 63.0843 438.128 51.9404 495.201 58.3464C526.859 61.8998 744.51 77.8903 774.189 88.5506L835.527 92.1041L1158.05 88.5506C1148.15 103.357 1101.46 137.068 1065.05 120.011C1028.64 102.955 1006.35 136.594 999.754 155.545C990.521 167.39 972.053 183.262 972.053 151.992C972.053 120.722 956.224 114.089 948.31 114.681C941.714 119.419 927.336 126.052 922.587 114.681C917.839 103.31 904.78 106.39 898.844 109.351C867.185 144.885 840.144 111.056 835.527 92.1041L774.189 88.5506L774.005 88.5505C770.394 88.5475 756.526 88.5359 742.531 96.9138C728.285 105.442 707.575 93.3603 699.001 86.2535C670.64 83.8845 610.753 80.568 598.09 86.2535C585.427 91.939 580.942 83.8845 580.282 79.1466C569.07 87.438 535.565 101.889 491.244 93.3603C446.922 84.8321 422.651 89.8069 416.055 93.3603C389.146 117.524 362.632 127.118 352.739 128.895C330.974 130.671 285.465 128.184 277.55 104.021C269.636 79.8573 254.466 82.1078 247.871 86.2535C210.276 107.574 216.268 66.8596 190.49 67.23C190.487 67.23 190.484 67.2301 190.48 67.2302C188.429 67.3041 162.78 81.4516 156.853 86.2535C136.275 106.153 124.535 92.1759 121.238 82.7Z" fill="#9C5628"/>
<path d="M1348 120.011C1335.33 91.5836 1257.64 77.2981 1243.13 77.8903C1249.06 69.0067 1492.44 60.1231 1603.24 63.6766L1684.36 65.4533C2010.84 70.7834 2099.88 89.0712 2129.56 100.988H2155.28L2483.74 97.4342L2547.05 95.6575L2982.35 79.667C2960.59 115.201 2911.12 148.439 2895.29 112.904C2879.46 77.3699 2837.91 112.904 2814.17 127.118C2795.17 138.489 2789.11 122.38 2788.45 112.904C2777.23 136.002 2747.69 176.511 2719.19 153.769C2690.7 131.027 2669.07 136.002 2661.81 141.332C2590.58 169.759 2547.05 121.124 2547.05 95.6575L2483.74 97.4342C2483.74 114.491 2464.61 120.603 2458.01 120.011C2455.37 110.535 2443.37 101.533 2416.46 141.332C2389.55 181.13 2367 166.206 2359.08 153.769C2349.19 134.817 2324.65 101.533 2305.66 120.011C2286.66 138.489 2271.36 127.71 2266.08 120.011C2267.4 112.312 2259.36 102.955 2216.62 127.118C2173.88 151.281 2151.98 119.939 2155.28 100.988H2129.56C2121.64 99.8032 2062.28 101.533 2046.46 120.011C2030.63 138.489 2017.44 132.448 2012.82 127.118C2001.61 119.419 1974.04 106.153 1953.46 114.681C1927.74 125.341 1900.04 109.351 1884.21 109.351C1868.38 109.351 1824.85 160.876 1820.89 120.011C1817.72 87.3195 1802.42 83.8845 1795.17 86.2535C1746.1 100.467 1690.96 77.2981 1684.36 65.4533L1603.24 63.6766C1601.92 69.599 1595.72 88.3855 1581.47 96.9138C1567.23 105.442 1545.2 88.6224 1535.97 79.1466C1521.46 89.2147 1482.94 107.574 1444.95 100.467C1406.96 93.3603 1402.74 106.982 1405.38 114.681C1391.53 128.302 1360.66 148.439 1348 120.011Z" fill="#9C5628"/>
<path d="M875.096 506.079C879.845 520.293 861.245 517.924 851.352 514.962C845.02 509.277 853.99 500.749 859.267 497.195C862.564 494.234 870.347 491.865 875.096 506.079Z" fill="#5A260D"/>
<path d="M1308.42 360.389C1313.17 374.602 1294.57 372.233 1284.68 369.272C1278.34 363.587 1287.31 355.058 1292.59 351.505C1295.89 348.544 1303.67 346.175 1308.42 360.389Z" fill="#5A260D"/>
<path d="M689.104 395.923C700.976 410.137 675.254 407.768 665.36 404.806C659.029 399.121 667.999 390.593 673.275 387.039C676.573 384.078 679.188 384.051 689.104 395.923Z" fill="#5A260D"/>
<path d="M972.05 234.242C966.114 248.456 958.199 246.087 948.306 243.125C941.974 237.44 950.944 228.912 956.221 225.358C959.518 222.397 977.852 220.347 972.05 234.242Z" fill="#5A260D"/>
<path d="M1150.13 159.619C1154.88 173.833 1136.28 171.464 1126.39 168.503C1120.05 162.817 1129.02 154.289 1134.3 150.736C1138.26 138.299 1145.38 145.406 1150.13 159.619Z" fill="#5A260D"/>
<path d="M801.887 129.415C806.635 143.629 788.036 141.26 778.143 138.299C758.356 120.532 780.781 124.085 786.057 120.532C789.355 117.571 797.138 115.202 801.887 129.415Z" fill="#5A260D"/>
<path d="M716.805 260.892C710.869 275.106 702.955 272.737 693.061 269.776C686.73 264.091 687.785 259.116 693.061 255.562C696.359 252.601 722.608 246.998 716.805 260.892Z" fill="#5A260D"/>
<path d="M1084.83 156.066C1080.88 179.163 1070.98 167.911 1061.09 164.95C1054.76 159.264 1063.73 150.736 1069 147.183C1072.3 144.221 1087.35 141.399 1084.83 156.066Z" fill="#5A260D"/>
<path d="M1239.17 147.183C1235.21 150.736 1225.32 159.027 1215.42 156.066C1209.09 150.381 1218.06 141.852 1223.34 138.299C1226.64 135.338 1250.85 136.69 1239.17 147.183Z" fill="#5A260D"/>
<path d="M1496.39 118.755C1503.78 132.028 1482.54 130.6 1472.65 127.638C1466.32 121.953 1475.29 122.308 1480.56 118.755C1480.56 118.755 1488.48 104.541 1496.39 118.755Z" fill="#5A260D"/>
<path d="M1405.37 147.182C1410.12 161.396 1399.44 153.697 1389.55 150.736C1383.21 145.05 1384.27 141.852 1389.55 138.299C1392.84 135.338 1400.63 132.969 1405.37 147.182Z" fill="#5A260D"/>
<path d="M1571.58 167.169C1573.56 194.261 1565.65 176.794 1555.75 173.833C1549.42 168.148 1558.39 159.62 1563.67 156.066C1566.96 153.105 1570.5 152.361 1571.58 167.169Z" fill="#5A260D"/>
<path d="M1718 280.436C1722.75 294.65 1712.07 290.504 1702.17 287.543C1695.84 281.857 1696.9 275.106 1702.17 271.553C1712.07 271.553 1713.25 266.222 1718 280.436Z" fill="#5A260D"/>
<path d="M1751.64 122.308C1756.39 136.522 1745.7 130.6 1735.81 127.638C1729.48 121.953 1730.53 116.978 1735.81 113.425C1739.11 110.463 1746.89 108.094 1751.64 122.308Z" fill="#5A260D"/>
<path d="M507.07 184.493C508.851 189.824 493.219 196.338 483.326 193.377C476.994 187.691 485.964 179.163 491.241 175.61C494.538 172.649 502.321 170.28 507.07 184.493Z" fill="#5A260D"/>
<path d="M566.429 287.543C566.429 302.383 560.493 294.058 550.6 291.097C544.268 285.411 545.323 282.213 550.6 278.659C560.493 269.776 566.429 283.99 566.429 287.543Z" fill="#5A260D"/>
<path d="M429.903 372.826C423.967 381.709 423.967 379.34 414.074 376.379C407.742 370.693 408.797 367.495 414.074 363.942C423.967 355.058 431.939 369.778 429.903 372.826Z" fill="#5A260D"/>
<path d="M513.006 502.526C513.006 502.526 507.07 509.041 497.177 506.079C490.845 500.394 491.9 497.196 497.177 493.642C507.07 484.759 513.006 502.526 513.006 502.526Z" fill="#5A260D"/>
<path d="M210.275 134.745C204.339 140.075 204.339 141.26 194.446 138.299C188.114 132.613 189.169 129.415 194.446 125.862C204.339 116.978 213.073 132.233 210.275 134.745Z" fill="#5A260D"/>
<path d="M22.3054 260.892C22.3054 275.732 22.3054 270.96 12.4122 267.999C6.08055 262.314 7.13595 259.116 12.4123 255.562C12.4123 255.562 22.3054 257.339 22.3054 260.892Z" fill="#5A260D"/>
<path d="M2089.99 280.436C2086.03 289.32 2084.05 286.951 2074.16 283.99C2067.82 278.304 2068.88 275.106 2074.16 271.553C2084.05 262.669 2091.46 277.137 2089.99 280.436Z" fill="#5A260D"/>
<path d="M1820.89 470.545C1814.95 474.099 1814.95 477.06 1805.06 474.099C1798.73 468.413 1807.7 465.215 1812.98 461.661C1822.87 452.778 1824.18 468.574 1820.89 470.545Z" fill="#5A260D"/>
<path d="M2165.17 486.535C2159.24 493.642 2159.24 493.05 2149.34 490.089C2143.01 484.403 2144.07 481.205 2149.34 477.652C2159.24 474.099 2167.55 483.693 2165.17 486.535Z" fill="#5A260D"/>
<path d="M1991.05 491.866C1996.54 499.257 1985.12 498.38 1975.22 495.419C1968.89 489.734 1969.95 486.536 1975.22 482.982C1985.12 479.429 1987.1 486.535 1991.05 491.866Z" fill="#5A260D"/>
<path d="M1896.08 511.41C1890.14 518.516 1896.08 521.478 1886.19 518.516C1879.85 512.831 1880.91 509.633 1886.19 506.079C1896.08 502.526 1898.45 508.567 1896.08 511.41Z" fill="#5A260D"/>
<path d="M1619.07 461.661C1613.13 468.768 1613.13 468.176 1603.24 465.215C1596.91 459.529 1597.96 456.331 1603.24 452.778C1613.13 449.225 1621.44 458.819 1619.07 461.661Z" fill="#5A260D"/>
<path d="M801.89 477.652C795.954 484.759 795.954 484.167 786.061 481.205C779.729 475.52 780.785 472.322 786.061 468.768C795.954 465.215 804.265 474.809 801.89 477.652Z" fill="#5A260D"/>
<path d="M1900.04 176.052C1896.08 184.936 1894.1 182.567 1884.21 179.606C1877.88 173.92 1878.93 170.722 1884.21 167.169C1894.1 158.285 1901.51 172.753 1900.04 176.052Z" fill="#9A502B"/>
<path d="M1801.1 267.999C1809.97 273.306 1795.17 274.514 1785.27 271.553C1778.94 265.867 1780 262.669 1785.27 259.115C1795.17 250.232 1795.17 264.446 1801.1 267.999Z" fill="#9A502B"/>
<path d="M1811 374.602C1807.04 383.486 1811 381.117 1801.1 378.156C1794.77 372.47 1795.83 369.272 1801.1 365.719C1801.1 365.719 1812.47 371.303 1811 374.602Z" fill="#9A502B"/>
<path d="M2214.64 143.629C2210.68 152.512 2200.79 153.697 2190.9 150.736C2184.56 145.05 2189.58 132.969 2194.85 129.415C2204.75 120.532 2216.11 140.33 2214.64 143.629Z" fill="#9A502B"/>
<path d="M2262.13 328.408C2258.17 337.291 2256.19 334.922 2246.3 331.961C2239.97 326.276 2241.02 323.077 2246.3 319.524C2270.04 307.087 2263.6 325.108 2262.13 328.408Z" fill="#9A502B"/>
<path d="M2517.37 132.969C2513.41 150.736 2511.44 139.483 2501.54 136.522C2495.21 130.837 2496.27 127.638 2501.54 124.085C2501.54 118.755 2518.15 129.484 2517.37 132.969Z" fill="#9A502B"/>
<path d="M2337.32 353.282C2333.36 362.165 2331.38 359.796 2321.49 356.835C2315.16 351.15 2320.17 351.505 2325.44 347.952C2335.34 339.068 2338.79 349.982 2337.32 353.282Z" fill="#9A502B"/>
<path d="M2651.92 193.819C2647.96 202.703 2638.07 207.591 2636.09 197.373C2629.76 191.687 2630.81 188.489 2636.09 184.936C2645.98 176.052 2653.39 190.52 2651.92 193.819Z" fill="#9A502B"/>
<path d="M2758.77 255.562C2754.81 264.446 2748.87 267.407 2738.98 264.446C2732.65 258.76 2737.66 250.232 2742.94 246.679C2752.83 237.795 2760.24 252.263 2758.77 255.562Z" fill="#9A502B"/>
<path d="M2911.12 264.446C2907.16 273.329 2905.19 270.96 2895.29 267.999C2888.96 262.314 2890.02 259.116 2895.29 255.562C2911.12 252.009 2919.04 246.679 2911.12 264.446Z" fill="#9A502B"/>
<path d="M2580.69 180.94C2576.73 189.824 2558.92 204.037 2552.99 188.489C2546.66 182.804 2547.71 179.606 2552.99 176.052C2562.88 167.169 2582.16 177.641 2580.69 180.94Z" fill="#9A502B"/>
<path d="M2802.3 451.001C2810.21 463.438 2780.53 474.099 2774.6 458.55C2768.26 452.865 2769.32 449.667 2774.6 446.113C2802.3 427.458 2800.33 447.916 2802.3 451.001Z" fill="#9A502B"/>
<path d="M2738.98 423.016C2735.02 431.9 2727.11 444.337 2721.17 428.788C2714.84 423.103 2715.9 419.905 2721.17 416.351C2731.07 407.468 2740.45 419.717 2738.98 423.016Z" fill="#9A502B"/>
<path d="M2289.83 446.113C2285.87 454.997 2279.94 457.958 2270.04 454.997C2263.71 449.311 2268.72 440.783 2274 437.23C2274 426.127 2291.3 442.814 2289.83 446.113Z" fill="#9A502B"/>
<path d="M1500.35 456.331C1496.39 465.215 1490.46 468.176 1480.56 465.215C1474.23 459.529 1479.24 451.001 1484.52 447.448C1496.39 447.448 1501.82 453.032 1500.35 456.331Z" fill="#9A502B"/>
<path d="M1179.81 461.661C1175.85 470.545 1163.98 477.06 1154.09 474.099C1147.76 468.413 1144.85 456.331 1150.13 452.778C1160.02 443.894 1181.28 458.362 1179.81 461.661Z" fill="#9A502B"/>
<path d="M1306.44 184.493C1302.49 193.377 1302.48 194.562 1292.59 191.6C1286.26 185.915 1291.27 180.94 1296.55 177.387C1306.44 168.503 1307.91 181.194 1306.44 184.493Z" fill="#9A502B"/>
<path d="M896.865 209.368C892.908 218.251 894.886 217.659 884.993 214.698C878.662 209.012 885.653 205.814 890.929 202.261C900.822 193.377 898.335 206.068 896.865 209.368Z" fill="#9A502B"/>
<path d="M619.855 424.35C615.898 433.234 609.962 436.195 600.069 433.234C593.737 427.549 598.75 419.02 604.026 415.467C607.983 401.253 621.325 421.051 619.855 424.35Z" fill="#9A502B"/>
<path d="M289.422 381.709C293.379 390.593 279.529 393.554 269.636 390.593C263.304 384.907 268.317 376.379 273.593 372.826C283.486 363.942 285.465 372.826 289.422 381.709Z" fill="#9A502B"/>
<path d="M311.187 214.698C307.23 223.581 301.294 226.542 291.401 223.581C291.401 209.368 290.082 209.367 295.358 205.814C305.251 196.93 312.657 211.398 311.187 214.698Z" fill="#9A502B"/>
<path d="M188.511 383.478C184.554 392.361 186.533 391.777 176.64 388.816C170.308 383.131 173.34 378.147 178.617 374.594C188.51 365.71 189.981 380.178 188.511 383.478Z" fill="#9A502B"/>
<path d="M251.828 175.61C242.298 179.889 241.935 187.455 232.042 184.493C225.71 178.808 226.765 164.95 232.042 161.396C241.935 152.513 259.743 172.056 251.828 175.61Z" fill="#9A502B"/>
<path d="M2555.96 308.864C2560.71 323.077 2550.02 318.932 2540.13 315.97C2533.8 310.285 2534.85 303.533 2540.13 299.98C2550.02 299.98 2551.21 294.65 2555.96 308.864Z" fill="#5A260D"/>
<path d="M2946.74 305.31C2942.78 314.194 2940.8 311.825 2930.91 308.864C2924.58 303.178 2925.63 299.98 2930.91 296.427C2940.8 287.543 2948.21 302.011 2946.74 305.31Z" fill="#5A260D"/>
<path d="M2677.64 495.419C2671.71 498.973 2671.71 501.934 2661.81 498.973C2655.48 493.287 2664.45 490.089 2669.73 486.536C2679.62 477.652 2680.93 493.448 2677.64 495.419Z" fill="#5A260D"/>
<path d="M1658.64 502.526C1652.71 509.633 1652.71 509.041 1642.81 506.079C1636.48 500.394 1637.54 497.196 1642.81 493.642C1652.71 490.089 1661.02 499.683 1658.64 502.526Z" fill="#5A260D"/>
<path d="M2657.86 292.873C2666.72 298.18 2651.92 299.388 2642.03 296.427C2635.69 290.741 2636.75 287.543 2642.03 283.99C2651.92 275.106 2651.92 289.32 2657.86 292.873Z" fill="#9A502B"/>
<path d="M1753.62 234.242C1749.66 243.125 1751.64 242.533 1741.74 239.572C1735.41 233.886 1742.4 230.688 1747.68 227.135C1757.57 218.251 1755.09 230.942 1753.62 234.242Z" fill="#9A502B"/>
<path d="M1476.61 449.224C1472.65 458.108 1466.71 461.069 1456.82 458.108C1450.49 452.423 1455.5 443.894 1460.78 440.341C1464.74 426.127 1478.08 445.925 1476.61 449.224Z" fill="#9A502B"/>
<path d="M1183.77 347.952C1188.52 362.165 1177.83 358.02 1167.94 355.058C1161.61 349.373 1162.66 342.621 1167.94 339.068C1177.83 339.068 1179.02 333.738 1183.77 347.952Z" fill="#5A260D"/>
<path d="M1555.75 347.952C1551.8 356.835 1549.82 354.466 1539.92 351.505C1533.59 345.82 1534.65 342.621 1539.92 339.068C1549.82 330.184 1557.22 344.652 1555.75 347.952Z" fill="#5A260D"/>
<path d="M1286.66 538.061C1280.72 541.614 1280.72 544.575 1270.83 541.614C1264.5 535.928 1273.47 532.73 1278.74 529.177C1288.64 520.293 1289.95 536.089 1286.66 538.061Z" fill="#5A260D"/>
<path d="M267.657 545.167C261.721 552.274 261.721 551.682 251.828 548.721C245.496 543.035 246.552 539.837 251.828 536.284C261.721 532.73 270.032 542.325 267.657 545.167Z" fill="#5A260D"/>
<path d="M1266.87 335.515C1275.74 340.822 1260.94 342.029 1251.04 339.068C1244.71 333.382 1245.77 330.184 1251.04 326.631C1260.94 317.747 1260.94 331.961 1266.87 335.515Z" fill="#9A502B"/>
<path d="M362.632 276.883C358.675 285.767 360.653 285.174 350.76 282.213C344.428 276.528 351.42 273.33 356.696 269.776C366.589 260.893 364.102 273.584 362.632 276.883Z" fill="#9A502B"/>
<path d="M85.6222 491.866C81.665 500.75 75.729 503.711 65.8358 500.749C59.5041 495.064 64.5167 486.536 69.793 482.982C73.7503 468.769 87.0918 488.567 85.6222 491.866Z" fill="#9A502B"/>
<path d="M2331.38 209.368C2336.13 223.581 2331.38 221.212 2321.49 218.251C2315.16 212.566 2316.21 205.814 2321.49 202.261C2331.38 202.261 2326.63 195.154 2331.38 209.368Z" fill="#5A260D"/>
<path d="M2555.96 308.864C2560.71 323.077 2550.02 318.932 2540.13 315.97C2533.8 310.285 2534.85 303.533 2540.13 299.98C2550.02 299.98 2551.21 294.65 2555.96 308.864Z" fill="#5A260D"/>
<path d="M2926.95 439.006C2917.06 454.997 2921.02 449.075 2911.12 446.113C2904.79 440.428 2905.85 433.676 2911.12 430.123C2921.02 430.123 2934.98 426.034 2926.95 439.006Z" fill="#5A260D"/>
<path d="M2079.83 1033.9C2075.08 1048.11 2093.68 1045.75 2103.57 1042.78C2109.9 1037.1 2100.93 1028.57 2095.66 1025.02C2092.36 1022.06 2084.58 1019.69 2079.83 1033.9Z" fill="#5A260D"/>
<path d="M1646.5 888.21C1641.75 902.424 1660.35 900.055 1670.25 897.094C1676.58 891.408 1667.61 882.88 1662.33 879.327C1659.03 876.365 1651.25 873.997 1646.5 888.21Z" fill="#5A260D"/>
<path d="M2265.82 923.744C2253.95 937.958 2279.67 935.589 2289.56 932.628C2295.89 926.942 2286.93 918.414 2281.65 914.861C2278.35 911.9 2275.74 911.873 2265.82 923.744Z" fill="#5A260D"/>
<path d="M1982.87 762.064C1988.81 776.277 1996.72 773.908 2006.62 770.947C2012.95 765.262 2003.98 756.733 1998.7 753.18C1995.41 750.219 1977.07 748.169 1982.87 762.064Z" fill="#5A260D"/>
<path d="M1804.79 687.441C1800.05 701.655 1818.65 699.286 1828.54 696.325C1834.87 690.639 1825.9 682.111 1820.62 678.557C1816.67 666.12 1809.54 673.227 1804.79 687.441Z" fill="#5A260D"/>
<path d="M2153.04 657.237C2148.29 671.451 2166.89 669.082 2176.78 666.121C2196.57 648.353 2174.14 651.907 2168.87 648.353C2165.57 645.392 2157.79 643.023 2153.04 657.237Z" fill="#5A260D"/>
<path d="M2238.12 788.714C2244.05 802.928 2251.97 800.559 2261.86 797.598C2268.19 791.912 2267.14 786.937 2261.86 783.384C2258.56 780.423 2232.32 774.819 2238.12 788.714Z" fill="#5A260D"/>
<path d="M1870.09 683.888C1874.05 706.985 1883.94 695.733 1893.83 692.771C1900.17 687.086 1891.2 678.558 1885.92 675.004C1882.62 672.043 1867.58 669.221 1870.09 683.888Z" fill="#5A260D"/>
<path d="M1715.76 675.004C1719.71 678.557 1729.61 686.849 1739.5 683.888C1745.83 678.202 1736.86 669.674 1731.58 666.121C1728.29 663.159 1704.07 664.511 1715.76 675.004Z" fill="#5A260D"/>
<path d="M1458.53 646.576C1451.14 659.849 1472.38 658.421 1482.27 655.46C1488.61 649.775 1479.64 650.13 1474.36 646.576C1474.36 646.576 1466.44 632.363 1458.53 646.576Z" fill="#5A260D"/>
<path d="M1549.55 675.004C1544.8 689.218 1555.48 681.519 1565.38 678.557C1571.71 672.872 1570.65 669.674 1565.38 666.12C1562.08 663.159 1554.3 660.79 1549.55 675.004Z" fill="#5A260D"/>
<path d="M1383.34 694.99C1381.36 722.083 1389.28 704.616 1399.17 701.655C1405.5 695.969 1396.53 687.441 1391.26 683.888C1387.96 680.927 1384.42 680.182 1383.34 694.99Z" fill="#5A260D"/>
<path d="M1236.92 808.258C1232.17 822.472 1242.86 818.326 1252.75 815.365C1259.08 809.679 1258.03 802.928 1252.75 799.374C1242.86 799.374 1241.67 794.044 1236.92 808.258Z" fill="#5A260D"/>
<path d="M1203.29 650.13C1198.54 664.344 1209.22 658.421 1219.11 655.46C1225.45 649.775 1224.39 644.8 1219.11 641.246C1215.82 638.285 1208.03 635.916 1203.29 650.13Z" fill="#5A260D"/>
<path d="M2447.85 712.315C2446.07 717.645 2461.7 724.16 2471.6 721.199C2477.93 715.513 2468.96 706.985 2463.68 703.431C2460.39 700.47 2452.6 698.101 2447.85 712.315Z" fill="#5A260D"/>
<path d="M2388.49 815.365C2388.49 830.204 2394.43 821.879 2404.32 818.918C2410.66 813.233 2409.6 810.035 2404.32 806.481C2394.43 797.598 2388.49 811.811 2388.49 815.365Z" fill="#5A260D"/>
<path d="M2525.02 900.647C2530.96 909.531 2530.96 907.162 2540.85 904.201C2547.18 898.515 2546.13 895.317 2540.85 891.764C2530.96 882.88 2522.98 897.6 2525.02 900.647Z" fill="#5A260D"/>
<path d="M2441.92 1030.35C2441.92 1030.35 2447.85 1036.86 2457.75 1033.9C2464.08 1028.22 2463.02 1025.02 2457.75 1021.46C2447.85 1012.58 2441.92 1030.35 2441.92 1030.35Z" fill="#5A260D"/>
<path d="M2744.65 662.567C2750.58 667.897 2750.58 669.082 2760.48 666.12C2766.81 660.435 2765.75 657.237 2760.48 653.683C2750.58 644.8 2741.85 660.054 2744.65 662.567Z" fill="#5A260D"/>
<path d="M2932.62 788.714C2932.62 803.554 2932.62 798.782 2942.51 795.821C2948.84 790.135 2947.79 786.937 2942.51 783.384C2942.51 783.384 2932.62 785.161 2932.62 788.714Z" fill="#5A260D"/>
<path d="M864.938 808.258C868.895 817.141 870.874 814.772 880.767 811.811C887.099 806.126 886.043 802.928 880.767 799.374C870.874 790.491 863.468 804.959 864.938 808.258Z" fill="#5A260D"/>
<path d="M1134.03 998.367C1139.97 1001.92 1139.97 1004.88 1149.86 1001.92C1156.19 996.235 1147.22 993.037 1141.95 989.483C1132.05 980.6 1130.74 996.396 1134.03 998.367Z" fill="#5A260D"/>
<path d="M789.749 1014.36C795.685 1021.46 795.685 1020.87 805.579 1017.91C811.91 1012.23 810.855 1009.03 805.579 1005.47C795.685 1001.92 787.375 1011.51 789.749 1014.36Z" fill="#5A260D"/>
<path d="M963.87 1019.69C958.382 1027.08 969.806 1026.2 979.699 1023.24C986.031 1017.56 984.975 1014.36 979.699 1010.8C969.806 1007.25 967.827 1014.36 963.87 1019.69Z" fill="#5A260D"/>
<path d="M1058.84 1039.23C1064.78 1046.34 1058.84 1049.3 1068.74 1046.34C1075.07 1040.65 1074.01 1037.45 1068.74 1033.9C1058.84 1030.35 1056.47 1036.39 1058.84 1039.23Z" fill="#5A260D"/>
<path d="M1335.85 989.483C1341.79 996.59 1341.79 995.998 1351.68 993.037C1358.02 987.351 1356.96 984.153 1351.68 980.6C1341.79 977.046 1333.48 986.64 1335.85 989.483Z" fill="#5A260D"/>
<path d="M2153.03 1005.47C2158.97 1012.58 2158.97 1011.99 2168.86 1009.03C2175.19 1003.34 2174.14 1000.14 2168.86 996.59C2158.97 993.037 2150.66 1002.63 2153.03 1005.47Z" fill="#5A260D"/>
<path d="M1054.89 703.874C1058.84 712.757 1060.82 710.388 1070.72 707.427C1077.05 701.742 1075.99 698.544 1070.72 694.99C1060.82 686.107 1053.42 700.574 1054.89 703.874Z" fill="#9A502B"/>
<path d="M1153.82 795.821C1144.95 801.128 1159.76 802.335 1169.65 799.374C1175.98 793.689 1174.92 790.491 1169.65 786.937C1159.76 778.054 1159.76 792.267 1153.82 795.821Z" fill="#9A502B"/>
<path d="M1143.93 902.424C1147.88 911.308 1143.93 908.939 1153.82 905.977C1160.15 900.292 1159.1 897.094 1153.82 893.54C1153.82 893.54 1142.46 899.125 1143.93 902.424Z" fill="#9A502B"/>
<path d="M740.283 671.451C744.241 680.334 754.134 681.519 764.027 678.557C770.359 672.872 765.346 660.79 760.07 657.237C750.177 648.353 738.814 668.151 740.283 671.451Z" fill="#9A502B"/>
<path d="M692.796 856.229C696.753 865.113 698.732 862.744 708.625 859.783C714.957 854.097 713.902 850.899 708.625 847.346C684.882 834.909 691.326 852.93 692.796 856.229Z" fill="#9A502B"/>
<path d="M437.551 660.79C441.509 678.557 443.487 667.305 453.38 664.344C459.712 658.658 458.657 655.46 453.38 651.907C453.38 646.577 436.775 657.306 437.551 660.79Z" fill="#9A502B"/>
<path d="M617.608 881.103C621.565 889.987 623.544 887.618 633.437 884.657C639.768 878.971 634.756 879.327 629.48 875.773C619.586 866.89 616.138 877.804 617.608 881.103Z" fill="#9A502B"/>
<path d="M303.004 721.641C306.961 730.525 316.854 735.412 318.833 725.194C325.165 719.509 324.109 716.311 318.833 712.757C308.94 703.874 301.534 718.342 303.004 721.641Z" fill="#9A502B"/>
<path d="M196.157 783.384C200.114 792.267 206.05 795.229 215.944 792.267C222.275 786.582 217.263 778.054 211.986 774.5C202.093 765.617 194.687 780.085 196.157 783.384Z" fill="#9A502B"/>
<path d="M43.8017 792.267C47.7589 801.151 49.7377 798.782 59.6309 795.821C65.9625 790.135 64.9072 786.937 59.6309 783.384C43.8017 779.83 35.8874 774.5 43.8017 792.267Z" fill="#9A502B"/>
<path d="M374.235 708.762C378.192 717.645 396 731.859 401.936 716.311C408.267 710.625 407.212 707.427 401.936 703.874C392.043 694.99 372.765 705.462 374.235 708.762Z" fill="#9A502B"/>
<path d="M152.627 978.823C144.712 991.26 174.392 1001.92 180.328 986.372C186.66 980.687 185.604 977.488 180.328 973.935C152.627 955.279 154.59 975.738 152.627 978.823Z" fill="#9A502B"/>
<path d="M215.944 950.838C219.901 959.721 227.815 972.158 233.751 956.61C240.083 950.925 239.028 947.727 233.751 944.173C223.858 935.29 214.474 947.538 215.944 950.838Z" fill="#9A502B"/>
<path d="M665.095 973.935C669.052 982.819 674.988 985.78 684.882 982.819C691.213 977.133 686.201 968.605 680.924 965.051C680.924 953.949 663.625 970.636 665.095 973.935Z" fill="#9A502B"/>
<path d="M1454.57 984.153C1458.53 993.037 1464.47 995.998 1474.36 993.037C1480.69 987.351 1475.68 978.823 1470.4 975.269C1458.53 975.269 1453.1 980.854 1454.57 984.153Z" fill="#9A502B"/>
<path d="M1775.11 989.483C1779.07 998.367 1790.94 1004.88 1800.84 1001.92C1807.17 996.235 1810.07 984.153 1804.79 980.6C1794.9 971.716 1773.64 986.184 1775.11 989.483Z" fill="#9A502B"/>
<path d="M1648.48 712.315C1652.44 721.199 1652.44 722.383 1662.33 719.422C1668.66 713.736 1663.65 708.762 1658.37 705.208C1648.48 696.325 1647.01 709.016 1648.48 712.315Z" fill="#9A502B"/>
<path d="M2058.06 737.189C2062.02 746.073 2060.04 745.481 2069.93 742.519C2076.26 736.834 2069.27 733.636 2063.99 730.082C2054.1 721.199 2056.59 733.89 2058.06 737.189Z" fill="#9A502B"/>
<path d="M2335.07 952.172C2339.03 961.056 2344.96 964.017 2354.85 961.056C2361.19 955.37 2356.17 946.842 2350.9 943.289C2346.94 929.075 2333.6 948.873 2335.07 952.172Z" fill="#9A502B"/>
<path d="M2665.5 909.531C2661.54 918.414 2675.39 921.376 2685.29 918.414C2691.62 912.729 2686.61 904.201 2681.33 900.647C2671.44 891.764 2669.46 900.647 2665.5 909.531Z" fill="#9A502B"/>
<path d="M2643.74 742.519C2647.69 751.403 2653.63 754.364 2663.52 751.403C2663.52 737.189 2664.84 737.189 2659.57 733.636C2649.67 724.752 2642.27 739.22 2643.74 742.519Z" fill="#9A502B"/>
<path d="M2766.41 911.299C2770.37 920.183 2768.39 919.599 2778.28 916.638C2784.62 910.952 2781.58 905.969 2776.31 902.416C2766.41 893.532 2764.94 908 2766.41 911.299Z" fill="#9A502B"/>
<path d="M2703.1 703.431C2712.63 707.71 2712.99 715.276 2722.88 712.315C2729.21 706.63 2728.16 692.771 2722.88 689.218C2712.99 680.334 2695.18 699.878 2703.1 703.431Z" fill="#9A502B"/>
<path d="M398.966 836.685C394.217 850.899 404.902 846.753 414.795 843.792C421.127 838.107 420.072 831.355 414.795 827.802C404.902 827.802 403.715 822.472 398.966 836.685Z" fill="#5A260D"/>
<path d="M8.18619 833.132C12.1434 842.015 14.1221 839.646 24.0153 836.685C30.347 831 29.2917 827.802 24.0153 824.248C14.1221 815.365 6.71654 829.833 8.18619 833.132Z" fill="#5A260D"/>
<path d="M277.281 1023.24C283.217 1026.79 283.217 1029.76 293.111 1026.79C299.442 1021.11 290.472 1017.91 285.196 1014.36C275.303 1005.47 273.989 1021.27 277.281 1023.24Z" fill="#5A260D"/>
<path d="M1296.28 1030.35C1302.22 1037.45 1302.22 1036.86 1312.11 1033.9C1318.44 1028.22 1317.39 1025.02 1312.11 1021.46C1302.22 1017.91 1293.91 1027.5 1296.28 1030.35Z" fill="#5A260D"/>
<path d="M297.068 820.695C288.202 826.002 303.004 827.209 312.897 824.248C319.229 818.563 318.173 815.365 312.897 811.811C303.004 802.928 303.004 817.141 297.068 820.695Z" fill="#9A502B"/>
<path d="M1201.31 762.063C1205.26 770.947 1203.29 770.355 1213.18 767.393C1219.51 761.708 1212.52 758.51 1207.24 754.956C1197.35 746.073 1199.84 758.764 1201.31 762.063Z" fill="#9A502B"/>
<path d="M1478.32 977.046C1482.27 985.93 1488.21 988.891 1498.1 985.93C1504.43 980.244 1499.42 971.716 1494.15 968.163C1490.19 953.949 1476.85 973.747 1478.32 977.046Z" fill="#9A502B"/>
<path d="M1771.16 875.773C1766.41 889.987 1777.09 885.841 1786.98 882.88C1793.32 877.195 1792.26 870.443 1786.98 866.89C1777.09 866.89 1775.9 861.56 1771.16 875.773Z" fill="#5A260D"/>
<path d="M1399.17 875.773C1403.13 884.657 1405.11 882.288 1415 879.327C1421.33 873.641 1420.28 870.443 1415 866.89C1405.11 858.006 1397.7 872.474 1399.17 875.773Z" fill="#5A260D"/>
<path d="M1668.27 1065.88C1674.2 1069.44 1674.2 1072.4 1684.1 1069.44C1690.43 1063.75 1681.46 1060.55 1676.18 1057C1666.29 1048.12 1664.97 1063.91 1668.27 1065.88Z" fill="#5A260D"/>
<path d="M2687.27 1072.99C2693.2 1080.1 2693.2 1079.5 2703.1 1076.54C2709.43 1070.86 2708.37 1067.66 2703.1 1064.11C2693.2 1060.55 2684.89 1070.15 2687.27 1072.99Z" fill="#5A260D"/>
<path d="M1688.05 863.336C1679.19 868.643 1693.99 869.851 1703.88 866.89C1710.21 861.204 1709.16 858.006 1703.88 854.453C1693.99 845.569 1693.99 859.783 1688.05 863.336Z" fill="#9A502B"/>
<path d="M2592.29 804.705C2596.25 813.588 2594.27 812.996 2604.16 810.035C2610.5 804.349 2603.5 801.151 2598.23 797.598C2588.33 788.714 2590.82 801.405 2592.29 804.705Z" fill="#9A502B"/>
<path d="M2869.3 1019.69C2873.26 1028.57 2879.19 1031.53 2889.09 1028.57C2895.42 1022.89 2890.41 1014.36 2885.13 1010.8C2881.17 996.59 2867.83 1016.39 2869.3 1019.69Z" fill="#9A502B"/>
<path d="M623.544 737.189C618.795 751.403 623.544 749.034 633.437 746.073C639.768 740.387 638.713 733.636 633.437 730.082C623.544 730.082 628.292 722.975 623.544 737.189Z" fill="#5A260D"/>
<path d="M398.966 836.685C394.217 850.899 404.902 846.753 414.795 843.792C421.127 838.107 420.072 831.355 414.795 827.802C404.902 827.802 403.715 822.472 398.966 836.685Z" fill="#5A260D"/>
<path d="M27.9726 966.828C37.8658 982.819 33.9085 976.896 43.8017 973.935C50.1334 968.249 49.0781 961.498 43.8017 957.945C33.9085 957.945 19.9468 953.856 27.9726 966.828Z" fill="#5A260D"/>
<path d="M910.046 1175.72C914.794 1161.51 896.195 1163.88 886.302 1166.84C879.97 1172.53 888.94 1181.05 894.216 1184.61C897.514 1187.57 905.297 1189.94 910.046 1175.72Z" fill="#5A260D"/>
<path d="M1343.37 1321.41C1348.12 1307.2 1329.52 1309.57 1319.63 1312.53C1313.29 1318.22 1322.26 1326.75 1327.54 1330.3C1330.84 1333.26 1338.62 1335.63 1343.37 1321.41Z" fill="#5A260D"/>
<path d="M724.054 1285.88C735.926 1271.67 710.203 1274.04 700.31 1277C693.978 1282.68 702.948 1291.21 708.225 1294.76C711.522 1297.73 714.138 1297.75 724.054 1285.88Z" fill="#5A260D"/>
<path d="M1007 1447.56C1001.06 1433.35 993.149 1435.72 983.256 1438.68C976.924 1444.36 985.894 1452.89 991.17 1456.45C994.468 1459.41 1012.8 1461.46 1007 1447.56Z" fill="#5A260D"/>
<path d="M1185.08 1522.18C1189.83 1507.97 1171.23 1510.34 1161.33 1513.3C1155 1518.99 1163.97 1527.51 1169.25 1531.07C1173.21 1543.5 1180.33 1536.4 1185.08 1522.18Z" fill="#5A260D"/>
<path d="M836.836 1552.39C841.585 1538.17 822.986 1540.54 813.093 1543.5C793.306 1561.27 815.731 1557.72 821.007 1561.27C824.305 1564.23 832.087 1566.6 836.836 1552.39Z" fill="#5A260D"/>
<path d="M751.755 1420.91C745.819 1406.7 737.904 1409.07 728.011 1412.03C721.679 1417.71 722.735 1422.69 728.011 1426.24C731.309 1429.2 757.557 1434.81 751.755 1420.91Z" fill="#5A260D"/>
<path d="M1119.78 1525.74C1115.83 1502.64 1105.93 1513.89 1096.04 1516.85C1089.71 1522.54 1098.68 1531.07 1103.95 1534.62C1107.25 1537.58 1122.3 1540.4 1119.78 1525.74Z" fill="#5A260D"/>
<path d="M1274.12 1534.62C1270.16 1531.07 1260.27 1522.78 1250.37 1525.74C1244.04 1531.42 1253.01 1539.95 1258.29 1543.5C1261.59 1546.47 1285.8 1545.11 1274.12 1534.62Z" fill="#5A260D"/>
<path d="M1531.34 1563.05C1538.73 1549.78 1517.49 1551.2 1507.6 1554.17C1501.27 1559.85 1510.24 1559.5 1515.51 1563.05C1515.51 1563.05 1523.43 1577.26 1531.34 1563.05Z" fill="#5A260D"/>
<path d="M1440.32 1534.62C1445.07 1520.41 1434.39 1528.11 1424.5 1531.07C1418.16 1536.75 1419.22 1539.95 1424.5 1543.5C1427.79 1546.47 1435.58 1548.83 1440.32 1534.62Z" fill="#5A260D"/>
<path d="M1606.53 1514.64C1608.51 1487.54 1600.6 1505.01 1590.7 1507.97C1584.37 1513.66 1593.34 1522.18 1598.62 1525.74C1601.91 1528.7 1605.45 1529.44 1606.53 1514.64Z" fill="#5A260D"/>
<path d="M1752.95 1401.37C1757.7 1387.15 1747.01 1391.3 1737.12 1394.26C1730.79 1399.95 1731.85 1406.7 1737.12 1410.25C1747.01 1410.25 1748.2 1415.58 1752.95 1401.37Z" fill="#5A260D"/>
<path d="M1786.59 1559.5C1791.34 1545.28 1780.65 1551.2 1770.76 1554.17C1764.43 1559.85 1765.48 1564.83 1770.76 1568.38C1774.06 1571.34 1781.84 1573.71 1786.59 1559.5Z" fill="#5A260D"/>
<path d="M542.02 1497.31C543.8 1491.98 528.169 1485.47 518.276 1488.43C511.944 1494.11 520.914 1502.64 526.19 1506.19C529.488 1509.15 537.271 1511.52 542.02 1497.31Z" fill="#5A260D"/>
<path d="M601.379 1394.26C601.379 1379.42 595.443 1387.75 585.549 1390.71C579.218 1396.39 580.273 1399.59 585.55 1403.14C595.443 1412.03 601.379 1397.81 601.379 1394.26Z" fill="#5A260D"/>
<path d="M464.853 1308.98C458.917 1300.09 458.917 1302.46 449.023 1305.42C442.692 1311.11 443.747 1314.31 449.024 1317.86C458.917 1326.75 466.889 1312.03 464.853 1308.98Z" fill="#5A260D"/>
<path d="M547.956 1179.28C547.956 1179.28 542.02 1172.76 532.126 1175.72C525.795 1181.41 526.85 1184.61 532.127 1188.16C542.02 1197.04 547.956 1179.28 547.956 1179.28Z" fill="#5A260D"/>
<path d="M245.224 1547.06C239.289 1541.73 239.288 1540.54 229.395 1543.5C223.064 1549.19 224.119 1552.39 229.395 1555.94C239.289 1564.83 248.023 1549.57 245.224 1547.06Z" fill="#5A260D"/>
<path d="M57.2551 1420.91C57.2551 1406.07 57.2551 1410.84 47.3619 1413.8C41.0303 1419.49 42.0857 1422.69 47.362 1426.24C47.362 1426.24 57.2551 1424.46 57.2551 1420.91Z" fill="#5A260D"/>
<path d="M2124.94 1401.37C2120.98 1392.48 2119 1394.85 2109.11 1397.81C2102.77 1403.5 2103.83 1406.7 2109.11 1410.25C2119 1419.13 2126.41 1404.67 2124.94 1401.37Z" fill="#5A260D"/>
<path d="M1855.84 1211.26C1849.9 1207.71 1849.9 1204.74 1840.01 1207.71C1833.68 1213.39 1842.65 1216.59 1847.93 1220.14C1857.82 1229.03 1859.13 1213.23 1855.84 1211.26Z" fill="#5A260D"/>
<path d="M2200.12 1195.27C2194.19 1188.16 2194.19 1188.75 2184.29 1191.71C2177.96 1197.4 2179.02 1200.6 2184.29 1204.15C2194.19 1207.71 2202.5 1198.11 2200.12 1195.27Z" fill="#5A260D"/>
<path d="M2026 1189.94C2031.49 1182.55 2020.07 1183.42 2010.17 1186.38C2003.84 1192.07 2004.9 1195.27 2010.17 1198.82C2020.07 1202.37 2022.05 1195.27 2026 1189.94Z" fill="#5A260D"/>
<path d="M1931.03 1170.39C1925.09 1163.29 1931.03 1160.33 1921.14 1163.29C1914.8 1168.97 1915.86 1172.17 1921.14 1175.72C1931.03 1179.28 1933.4 1173.24 1931.03 1170.39Z" fill="#5A260D"/>
<path d="M1654.02 1220.14C1648.08 1213.04 1648.08 1213.63 1638.19 1216.59C1631.86 1222.27 1632.91 1225.47 1638.19 1229.03C1648.08 1232.58 1656.39 1222.98 1654.02 1220.14Z" fill="#5A260D"/>
<path d="M836.84 1204.15C830.904 1197.04 830.904 1197.64 821.011 1200.6C814.679 1206.28 815.734 1209.48 821.011 1213.04C830.904 1216.59 839.214 1206.99 836.84 1204.15Z" fill="#5A260D"/>
<path d="M1934.99 1505.75C1931.03 1496.87 1929.05 1499.24 1919.16 1502.2C1912.83 1507.88 1913.88 1511.08 1919.16 1514.64C1929.05 1523.52 1936.46 1509.05 1934.99 1505.75Z" fill="#9A502B"/>
<path d="M1836.05 1413.8C1844.92 1408.5 1830.12 1407.29 1820.22 1410.25C1813.89 1415.94 1814.95 1419.13 1820.22 1422.69C1830.12 1431.57 1830.12 1417.36 1836.05 1413.8Z" fill="#9A502B"/>
<path d="M1845.95 1307.2C1841.99 1298.32 1845.95 1300.69 1836.05 1303.65C1829.72 1309.33 1830.78 1312.53 1836.05 1316.08C1836.05 1316.08 1847.42 1310.5 1845.95 1307.2Z" fill="#9A502B"/>
<path d="M2249.59 1538.17C2245.63 1529.29 2235.74 1528.11 2225.85 1531.07C2219.51 1536.75 2224.53 1548.84 2229.8 1552.39C2239.7 1561.27 2251.06 1541.47 2249.59 1538.17Z" fill="#9A502B"/>
<path d="M2297.08 1353.4C2293.12 1344.51 2291.14 1346.88 2281.25 1349.84C2274.92 1355.53 2275.97 1358.73 2281.25 1362.28C2304.99 1374.72 2298.55 1356.7 2297.08 1353.4Z" fill="#9A502B"/>
<path d="M2552.32 1548.83C2548.36 1531.07 2546.39 1542.32 2536.49 1545.28C2530.16 1550.97 2531.22 1554.17 2536.49 1557.72C2536.49 1563.05 2553.1 1552.32 2552.32 1548.83Z" fill="#9A502B"/>
<path d="M2372.27 1328.52C2368.31 1319.64 2366.33 1322.01 2356.44 1324.97C2350.1 1330.65 2355.12 1330.3 2360.39 1333.85C2370.29 1342.74 2373.74 1331.82 2372.27 1328.52Z" fill="#9A502B"/>
<path d="M2686.87 1487.98C2682.91 1479.1 2673.02 1474.21 2671.04 1484.43C2664.71 1490.12 2665.76 1493.31 2671.04 1496.87C2680.93 1505.75 2688.34 1491.28 2686.87 1487.98Z" fill="#9A502B"/>
<path d="M2793.72 1426.24C2789.76 1417.36 2783.82 1414.4 2773.93 1417.36C2767.6 1423.04 2772.61 1431.57 2777.89 1435.12C2787.78 1444.01 2795.19 1429.54 2793.72 1426.24Z" fill="#9A502B"/>
<path d="M2946.07 1417.36C2942.11 1408.47 2940.14 1410.84 2930.24 1413.8C2923.91 1419.49 2924.97 1422.69 2930.24 1426.24C2946.07 1429.79 2953.99 1435.12 2946.07 1417.36Z" fill="#9A502B"/>
<path d="M2615.64 1500.86C2611.68 1491.98 2593.87 1477.77 2587.94 1493.31C2581.61 1499 2582.66 1502.2 2587.94 1505.75C2597.83 1514.64 2617.11 1504.16 2615.64 1500.86Z" fill="#9A502B"/>
<path d="M2837.25 1230.8C2845.16 1218.37 2815.48 1207.71 2809.55 1223.25C2803.21 1228.94 2804.27 1232.14 2809.55 1235.69C2837.25 1254.35 2835.28 1233.89 2837.25 1230.8Z" fill="#9A502B"/>
<path d="M2773.93 1258.79C2769.97 1249.9 2762.06 1237.47 2756.12 1253.02C2749.79 1258.7 2750.85 1261.9 2756.12 1265.45C2766.02 1274.34 2775.4 1262.09 2773.93 1258.79Z" fill="#9A502B"/>
<path d="M2324.78 1235.69C2320.82 1226.81 2314.88 1223.85 2304.99 1226.81C2298.66 1232.49 2303.67 1241.02 2308.95 1244.57C2308.95 1255.68 2326.25 1238.99 2324.78 1235.69Z" fill="#9A502B"/>
<path d="M1535.3 1225.47C1531.34 1216.59 1525.41 1213.63 1515.51 1216.59C1509.18 1222.27 1514.19 1230.8 1519.47 1234.36C1531.34 1234.36 1536.77 1228.77 1535.3 1225.47Z" fill="#9A502B"/>
<path d="M1214.76 1220.14C1210.8 1211.26 1198.93 1204.74 1189.04 1207.71C1182.71 1213.39 1179.8 1225.47 1185.08 1229.03C1194.97 1237.91 1216.23 1223.44 1214.76 1220.14Z" fill="#9A502B"/>
<path d="M1341.39 1497.31C1337.44 1488.43 1337.43 1487.24 1327.54 1490.2C1321.21 1495.89 1326.22 1500.86 1331.5 1504.42C1341.39 1513.3 1342.86 1500.61 1341.39 1497.31Z" fill="#9A502B"/>
<path d="M931.815 1472.44C927.858 1463.55 929.836 1464.14 919.943 1467.11C913.611 1472.79 920.602 1475.99 925.879 1479.54C935.772 1488.43 933.284 1475.74 931.815 1472.44Z" fill="#9A502B"/>
<path d="M654.805 1257.45C650.848 1248.57 644.912 1245.61 635.019 1248.57C628.687 1254.26 633.699 1262.78 638.976 1266.34C642.933 1280.55 656.275 1260.75 654.805 1257.45Z" fill="#9A502B"/>
<path d="M324.372 1300.09C328.329 1291.21 314.479 1288.25 304.585 1291.21C298.254 1296.9 303.266 1305.42 308.543 1308.98C318.436 1317.86 320.415 1308.98 324.372 1300.09Z" fill="#9A502B"/>
<path d="M346.137 1467.11C342.18 1458.22 336.244 1455.26 326.351 1458.22C326.351 1472.44 325.031 1472.44 330.308 1475.99C340.201 1484.87 347.607 1470.41 346.137 1467.11Z" fill="#9A502B"/>
<path d="M223.461 1298.33C219.504 1289.44 221.483 1290.03 211.589 1292.99C205.258 1298.67 208.29 1303.66 213.566 1307.21C223.459 1316.09 224.931 1301.63 223.461 1298.33Z" fill="#9A502B"/>
<path d="M286.778 1506.19C277.247 1501.91 276.884 1494.35 266.991 1497.31C260.66 1503 261.715 1516.85 266.991 1520.41C276.885 1529.29 294.692 1509.75 286.778 1506.19Z" fill="#9A502B"/>
<path d="M2590.91 1372.94C2595.66 1358.73 2584.97 1362.87 2575.08 1365.83C2568.75 1371.52 2569.8 1378.27 2575.08 1381.82C2584.97 1381.82 2586.16 1387.15 2590.91 1372.94Z" fill="#5A260D"/>
<path d="M2981.69 1376.49C2977.73 1367.61 2975.75 1369.98 2965.86 1372.94C2959.53 1378.63 2960.58 1381.82 2965.86 1385.38C2975.75 1394.26 2983.16 1379.79 2981.69 1376.49Z" fill="#5A260D"/>
<path d="M2712.59 1186.38C2706.66 1182.83 2706.66 1179.87 2696.76 1182.83C2690.43 1188.52 2699.4 1191.71 2704.68 1195.27C2714.57 1204.15 2715.88 1188.36 2712.59 1186.38Z" fill="#5A260D"/>
<path d="M1693.59 1179.28C1687.66 1172.17 1687.66 1172.76 1677.76 1175.72C1671.43 1181.41 1672.49 1184.61 1677.76 1188.16C1687.66 1191.71 1695.97 1182.12 1693.59 1179.28Z" fill="#5A260D"/>
<path d="M2692.81 1388.93C2701.67 1383.62 2686.87 1382.42 2676.98 1385.38C2670.64 1391.06 2671.7 1394.26 2676.98 1397.81C2686.87 1406.7 2686.87 1392.48 2692.81 1388.93Z" fill="#9A502B"/>
<path d="M1788.57 1447.56C1784.61 1438.68 1786.59 1439.27 1776.69 1442.23C1770.36 1447.92 1777.35 1451.12 1782.63 1454.67C1792.52 1463.55 1790.04 1450.86 1788.57 1447.56Z" fill="#9A502B"/>
<path d="M1511.56 1232.58C1507.6 1223.7 1501.66 1220.73 1491.77 1223.7C1485.44 1229.38 1490.45 1237.91 1495.73 1241.46C1499.68 1255.68 1513.03 1235.88 1511.56 1232.58Z" fill="#9A502B"/>
<path d="M1218.72 1333.85C1223.47 1319.64 1212.78 1323.78 1202.89 1326.75C1196.56 1332.43 1197.61 1339.18 1202.89 1342.74C1212.78 1342.74 1213.97 1348.07 1218.72 1333.85Z" fill="#5A260D"/>
<path d="M1590.7 1333.85C1586.75 1324.97 1584.77 1327.34 1574.87 1330.3C1568.54 1335.98 1569.6 1339.18 1574.87 1342.74C1584.77 1351.62 1592.17 1337.15 1590.7 1333.85Z" fill="#5A260D"/>
<path d="M1321.61 1143.74C1315.67 1140.19 1315.67 1137.23 1305.78 1140.19C1299.45 1145.88 1308.42 1149.07 1313.69 1152.63C1323.59 1161.51 1324.9 1145.71 1321.61 1143.74Z" fill="#5A260D"/>
<path d="M302.607 1136.64C296.671 1129.53 296.671 1130.12 286.778 1133.08C280.446 1138.77 281.501 1141.97 286.778 1145.52C296.671 1149.07 304.981 1139.48 302.607 1136.64Z" fill="#5A260D"/>
<path d="M1301.82 1346.29C1310.69 1340.98 1295.88 1339.77 1285.99 1342.74C1279.66 1348.42 1280.72 1351.62 1285.99 1355.17C1295.88 1364.06 1295.88 1349.84 1301.82 1346.29Z" fill="#9A502B"/>
<path d="M397.582 1404.92C393.624 1396.04 395.603 1396.63 385.71 1399.59C379.378 1405.28 386.369 1408.47 391.646 1412.03C401.539 1420.91 399.051 1408.22 397.582 1404.92Z" fill="#9A502B"/>
<path d="M120.572 1189.94C116.615 1181.05 110.679 1178.09 100.785 1181.05C94.4538 1186.74 99.4664 1195.27 104.743 1198.82C108.7 1213.04 122.042 1193.24 120.572 1189.94Z" fill="#9A502B"/>
<path d="M2366.33 1472.44C2371.08 1458.22 2366.33 1460.59 2356.44 1463.55C2350.1 1469.24 2351.16 1475.99 2356.44 1479.54C2366.33 1479.54 2361.58 1486.65 2366.33 1472.44Z" fill="#5A260D"/>
<path d="M2590.91 1372.94C2595.66 1358.73 2584.97 1362.87 2575.08 1365.83C2568.75 1371.52 2569.8 1378.27 2575.08 1381.82C2584.97 1381.82 2586.16 1387.15 2590.91 1372.94Z" fill="#5A260D"/>
<path d="M2961.9 1242.8C2952.01 1226.81 2955.96 1232.73 2946.07 1235.69C2939.74 1241.38 2940.8 1248.13 2946.07 1251.68C2955.96 1251.68 2969.93 1255.77 2961.9 1242.8Z" fill="#5A260D"/>
<path d="M2079.83 2017.9C2075.08 2032.11 2093.68 2029.75 2103.57 2026.78C2109.9 2021.1 2100.93 2012.57 2095.66 2009.02C2092.36 2006.06 2084.58 2003.69 2079.83 2017.9Z" fill="#5A260D"/>
<path d="M1646.5 1872.21C1641.75 1886.42 1660.35 1884.06 1670.25 1881.09C1676.58 1875.41 1667.61 1866.88 1662.33 1863.33C1659.03 1860.37 1651.25 1858 1646.5 1872.21Z" fill="#5A260D"/>
<path d="M2265.82 1907.74C2253.95 1921.96 2279.67 1919.59 2289.56 1916.63C2295.89 1910.94 2286.93 1902.41 2281.65 1898.86C2278.35 1895.9 2275.74 1895.87 2265.82 1907.74Z" fill="#5A260D"/>
<path d="M1982.87 1746.06C1988.81 1760.28 1996.72 1757.91 2006.62 1754.95C2012.95 1749.26 2003.98 1740.73 1998.7 1737.18C1995.41 1734.22 1977.07 1732.17 1982.87 1746.06Z" fill="#5A260D"/>
<path d="M1804.79 1671.44C1800.05 1685.65 1818.65 1683.29 1828.54 1680.32C1834.87 1674.64 1825.9 1666.11 1820.62 1662.56C1816.67 1650.12 1809.54 1657.23 1804.79 1671.44Z" fill="#5A260D"/>
<path d="M2153.04 1641.24C2148.29 1655.45 2166.89 1653.08 2176.78 1650.12C2196.57 1632.35 2174.14 1635.91 2168.87 1632.35C2165.57 1629.39 2157.79 1627.02 2153.04 1641.24Z" fill="#5A260D"/>
<path d="M2238.12 1772.71C2244.05 1786.93 2251.97 1784.56 2261.86 1781.6C2268.19 1775.91 2267.14 1770.94 2261.86 1767.38C2258.56 1764.42 2232.32 1758.82 2238.12 1772.71Z" fill="#5A260D"/>
<path d="M1870.09 1667.89C1874.05 1690.99 1883.94 1679.73 1893.83 1676.77C1900.17 1671.09 1891.2 1662.56 1885.92 1659C1882.62 1656.04 1867.58 1653.22 1870.09 1667.89Z" fill="#5A260D"/>
<path d="M1715.76 1659C1719.71 1662.56 1729.61 1670.85 1739.5 1667.89C1745.83 1662.2 1736.86 1653.67 1731.58 1650.12C1728.29 1647.16 1704.07 1648.51 1715.76 1659Z" fill="#5A260D"/>
<path d="M1458.53 1630.58C1451.14 1643.85 1472.38 1642.42 1482.27 1639.46C1488.61 1633.77 1479.64 1634.13 1474.36 1630.58C1474.36 1630.58 1466.44 1616.36 1458.53 1630.58Z" fill="#5A260D"/>
<path d="M1549.55 1659C1544.8 1673.22 1555.48 1665.52 1565.38 1662.56C1571.71 1656.87 1570.65 1653.67 1565.38 1650.12C1562.08 1647.16 1554.3 1644.79 1549.55 1659Z" fill="#5A260D"/>
<path d="M1383.34 1678.99C1381.36 1706.08 1389.28 1688.62 1399.17 1685.65C1405.5 1679.97 1396.53 1671.44 1391.26 1667.89C1387.96 1664.93 1384.42 1664.18 1383.34 1678.99Z" fill="#5A260D"/>
<path d="M1236.92 1792.26C1232.17 1806.47 1242.86 1802.33 1252.75 1799.36C1259.08 1793.68 1258.03 1786.93 1252.75 1783.37C1242.86 1783.37 1241.67 1778.04 1236.92 1792.26Z" fill="#5A260D"/>
<path d="M1203.29 1634.13C1198.54 1648.34 1209.22 1642.42 1219.11 1639.46C1225.45 1633.77 1224.39 1628.8 1219.11 1625.25C1215.82 1622.29 1208.03 1619.92 1203.29 1634.13Z" fill="#5A260D"/>
<path d="M2447.85 1696.32C2446.07 1701.65 2461.7 1708.16 2471.6 1705.2C2477.93 1699.51 2468.96 1690.98 2463.68 1687.43C2460.39 1684.47 2452.6 1682.1 2447.85 1696.32Z" fill="#5A260D"/>
<path d="M2388.49 1799.36C2388.49 1814.2 2394.43 1805.88 2404.32 1802.92C2410.66 1797.23 2409.6 1794.03 2404.32 1790.48C2394.43 1781.6 2388.49 1795.81 2388.49 1799.36Z" fill="#5A260D"/>
<path d="M2525.02 1884.65C2530.96 1893.53 2530.96 1891.16 2540.85 1888.2C2547.18 1882.52 2546.13 1879.32 2540.85 1875.76C2530.96 1866.88 2522.98 1881.6 2525.02 1884.65Z" fill="#5A260D"/>
<path d="M2441.92 2014.35C2441.92 2014.35 2447.85 2020.86 2457.75 2017.9C2464.08 2012.22 2463.02 2009.02 2457.75 2005.46C2447.85 1996.58 2441.92 2014.35 2441.92 2014.35Z" fill="#5A260D"/>
<path d="M2744.65 1646.57C2750.58 1651.9 2750.58 1653.08 2760.48 1650.12C2766.81 1644.43 2765.75 1641.24 2760.48 1637.68C2750.58 1628.8 2741.85 1644.05 2744.65 1646.57Z" fill="#5A260D"/>
<path d="M2932.62 1772.71C2932.62 1787.55 2932.62 1782.78 2942.51 1779.82C2948.84 1774.14 2947.79 1770.94 2942.51 1767.38C2942.51 1767.38 2932.62 1769.16 2932.62 1772.71Z" fill="#5A260D"/>
<path d="M864.938 1792.26C868.895 1801.14 870.874 1798.77 880.767 1795.81C887.099 1790.13 886.043 1786.93 880.767 1783.37C870.874 1774.49 863.468 1788.96 864.938 1792.26Z" fill="#5A260D"/>
<path d="M1134.03 1982.37C1139.97 1985.92 1139.97 1988.88 1149.86 1985.92C1156.19 1980.23 1147.22 1977.04 1141.95 1973.48C1132.05 1964.6 1130.74 1980.4 1134.03 1982.37Z" fill="#5A260D"/>
<path d="M789.749 1998.36C795.685 2005.46 795.685 2004.87 805.579 2001.91C811.91 1996.23 810.855 1993.03 805.579 1989.47C795.685 1985.92 787.375 1995.51 789.749 1998.36Z" fill="#5A260D"/>
<path d="M963.87 2003.69C958.382 2011.08 969.806 2010.2 979.699 2007.24C986.031 2001.56 984.975 1998.36 979.699 1994.8C969.806 1991.25 967.827 1998.36 963.87 2003.69Z" fill="#5A260D"/>
<path d="M1058.84 2023.23C1064.78 2030.34 1058.84 2033.3 1068.74 2030.34C1075.07 2024.65 1074.01 2021.45 1068.74 2017.9C1058.84 2014.35 1056.47 2020.39 1058.84 2023.23Z" fill="#5A260D"/>
<path d="M1335.85 1973.48C1341.79 1980.59 1341.79 1980 1351.68 1977.04C1358.02 1971.35 1356.96 1968.15 1351.68 1964.6C1341.79 1961.05 1333.48 1970.64 1335.85 1973.48Z" fill="#5A260D"/>
<path d="M2153.03 1989.47C2158.97 1996.58 2158.97 1995.99 2168.86 1993.03C2175.19 1987.34 2174.14 1984.14 2168.86 1980.59C2158.97 1977.04 2150.66 1986.63 2153.03 1989.47Z" fill="#5A260D"/>
<path d="M1054.89 1687.87C1058.84 1696.76 1060.82 1694.39 1070.72 1691.43C1077.05 1685.74 1075.99 1682.54 1070.72 1678.99C1060.82 1670.11 1053.42 1684.57 1054.89 1687.87Z" fill="#9A502B"/>
<path d="M1153.82 1779.82C1144.95 1785.13 1159.76 1786.34 1169.65 1783.37C1175.98 1777.69 1174.92 1774.49 1169.65 1770.94C1159.76 1762.05 1159.76 1776.27 1153.82 1779.82Z" fill="#9A502B"/>
<path d="M1143.93 1886.42C1147.88 1895.31 1143.93 1892.94 1153.82 1889.98C1160.15 1884.29 1159.1 1881.09 1153.82 1877.54C1153.82 1877.54 1142.46 1883.12 1143.93 1886.42Z" fill="#9A502B"/>
<path d="M740.283 1655.45C744.241 1664.33 754.134 1665.52 764.027 1662.56C770.359 1656.87 765.346 1644.79 760.07 1641.24C750.177 1632.35 738.814 1652.15 740.283 1655.45Z" fill="#9A502B"/>
<path d="M692.796 1840.23C696.753 1849.11 698.732 1846.74 708.625 1843.78C714.957 1838.1 713.902 1834.9 708.625 1831.35C684.882 1818.91 691.326 1836.93 692.796 1840.23Z" fill="#9A502B"/>
<path d="M437.551 1644.79C441.509 1662.56 443.487 1651.3 453.38 1648.34C459.712 1642.66 458.657 1639.46 453.38 1635.91C453.38 1630.58 436.775 1641.31 437.551 1644.79Z" fill="#9A502B"/>
<path d="M617.608 1865.1C621.565 1873.99 623.544 1871.62 633.437 1868.66C639.768 1862.97 634.756 1863.33 629.48 1859.77C619.586 1850.89 616.138 1861.8 617.608 1865.1Z" fill="#9A502B"/>
<path d="M303.004 1705.64C306.961 1714.52 316.854 1719.41 318.833 1709.19C325.165 1703.51 324.109 1700.31 318.833 1696.76C308.94 1687.87 301.534 1702.34 303.004 1705.64Z" fill="#9A502B"/>
<path d="M196.157 1767.38C200.114 1776.27 206.05 1779.23 215.944 1776.27C222.275 1770.58 217.263 1762.05 211.986 1758.5C202.093 1749.62 194.687 1764.08 196.157 1767.38Z" fill="#9A502B"/>
<path d="M43.8017 1776.27C47.7589 1785.15 49.7377 1782.78 59.6309 1779.82C65.9625 1774.14 64.9072 1770.94 59.6309 1767.38C43.8017 1763.83 35.8874 1758.5 43.8017 1776.27Z" fill="#9A502B"/>
<path d="M374.235 1692.76C378.192 1701.65 396 1715.86 401.936 1700.31C408.267 1694.63 407.212 1691.43 401.936 1687.87C392.043 1678.99 372.765 1689.46 374.235 1692.76Z" fill="#9A502B"/>
<path d="M152.627 1962.82C144.712 1975.26 174.392 1985.92 180.328 1970.37C186.66 1964.69 185.604 1961.49 180.328 1957.94C152.627 1939.28 154.59 1959.74 152.627 1962.82Z" fill="#9A502B"/>
<path d="M215.944 1934.84C219.901 1943.72 227.815 1956.16 233.751 1940.61C240.083 1934.92 239.028 1931.73 233.751 1928.17C223.858 1919.29 214.474 1931.54 215.944 1934.84Z" fill="#9A502B"/>
<path d="M665.095 1957.94C669.052 1966.82 674.988 1969.78 684.882 1966.82C691.213 1961.13 686.201 1952.6 680.924 1949.05C680.924 1937.95 663.625 1954.64 665.095 1957.94Z" fill="#9A502B"/>
<path d="M1454.57 1968.15C1458.53 1977.04 1464.47 1980 1474.36 1977.04C1480.69 1971.35 1475.68 1962.82 1470.4 1959.27C1458.53 1959.27 1453.1 1964.85 1454.57 1968.15Z" fill="#9A502B"/>
<path d="M1775.11 1973.48C1779.07 1982.37 1790.94 1988.88 1800.84 1985.92C1807.17 1980.23 1810.07 1968.15 1804.79 1964.6C1794.9 1955.72 1773.64 1970.18 1775.11 1973.48Z" fill="#9A502B"/>
<path d="M1648.48 1696.32C1652.44 1705.2 1652.44 1706.38 1662.33 1703.42C1668.66 1697.74 1663.65 1692.76 1658.37 1689.21C1648.48 1680.32 1647.01 1693.02 1648.48 1696.32Z" fill="#9A502B"/>
<path d="M2058.06 1721.19C2062.02 1730.07 2060.04 1729.48 2069.93 1726.52C2076.26 1720.83 2069.27 1717.64 2063.99 1714.08C2054.1 1705.2 2056.59 1717.89 2058.06 1721.19Z" fill="#9A502B"/>
<path d="M2335.07 1936.17C2339.03 1945.06 2344.96 1948.02 2354.85 1945.06C2361.19 1939.37 2356.17 1930.84 2350.9 1927.29C2346.94 1913.07 2333.6 1932.87 2335.07 1936.17Z" fill="#9A502B"/>
<path d="M2665.5 1893.53C2661.54 1902.41 2675.39 1905.38 2685.29 1902.41C2691.62 1896.73 2686.61 1888.2 2681.33 1884.65C2671.44 1875.76 2669.46 1884.65 2665.5 1893.53Z" fill="#9A502B"/>
<path d="M2643.74 1726.52C2647.69 1735.4 2653.63 1738.36 2663.52 1735.4C2663.52 1721.19 2664.84 1721.19 2659.57 1717.64C2649.67 1708.75 2642.27 1723.22 2643.74 1726.52Z" fill="#9A502B"/>
<path d="M2766.41 1895.3C2770.37 1904.18 2768.39 1903.6 2778.28 1900.64C2784.62 1894.95 2781.58 1889.97 2776.31 1886.42C2766.41 1877.53 2764.94 1892 2766.41 1895.3Z" fill="#9A502B"/>
<path d="M2703.1 1687.43C2712.63 1691.71 2712.99 1699.28 2722.88 1696.32C2729.21 1690.63 2728.16 1676.77 2722.88 1673.22C2712.99 1664.33 2695.18 1683.88 2703.1 1687.43Z" fill="#9A502B"/>
<path d="M398.966 1820.69C394.217 1834.9 404.902 1830.75 414.795 1827.79C421.127 1822.11 420.072 1815.36 414.795 1811.8C404.902 1811.8 403.715 1806.47 398.966 1820.69Z" fill="#5A260D"/>
<path d="M8.18619 1817.13C12.1434 1826.02 14.1221 1823.65 24.0153 1820.69C30.347 1815 29.2917 1811.8 24.0153 1808.25C14.1221 1799.36 6.71654 1813.83 8.18619 1817.13Z" fill="#5A260D"/>
<path d="M277.281 2007.24C283.217 2010.79 283.217 2013.76 293.111 2010.79C299.442 2005.11 290.472 2001.91 285.196 1998.36C275.303 1989.47 273.989 2005.27 277.281 2007.24Z" fill="#5A260D"/>
<path d="M1296.28 2014.35C1302.22 2021.45 1302.22 2020.86 1312.11 2017.9C1318.44 2012.22 1317.39 2009.02 1312.11 2005.46C1302.22 2001.91 1293.91 2011.5 1296.28 2014.35Z" fill="#5A260D"/>
<path d="M297.068 1804.69C288.202 1810 303.004 1811.21 312.897 1808.25C319.229 1802.56 318.173 1799.36 312.897 1795.81C303.004 1786.93 303.004 1801.14 297.068 1804.69Z" fill="#9A502B"/>
<path d="M1201.31 1746.06C1205.26 1754.95 1203.29 1754.35 1213.18 1751.39C1219.51 1745.71 1212.52 1742.51 1207.24 1738.96C1197.35 1730.07 1199.84 1742.76 1201.31 1746.06Z" fill="#9A502B"/>
<path d="M1478.32 1961.05C1482.27 1969.93 1488.21 1972.89 1498.1 1969.93C1504.43 1964.24 1499.42 1955.72 1494.15 1952.16C1490.19 1937.95 1476.85 1957.75 1478.32 1961.05Z" fill="#9A502B"/>
<path d="M1771.16 1859.77C1766.41 1873.99 1777.09 1869.84 1786.98 1866.88C1793.32 1861.19 1792.26 1854.44 1786.98 1850.89C1777.09 1850.89 1775.9 1845.56 1771.16 1859.77Z" fill="#5A260D"/>
<path d="M1399.17 1859.77C1403.13 1868.66 1405.11 1866.29 1415 1863.33C1421.33 1857.64 1420.28 1854.44 1415 1850.89C1405.11 1842.01 1397.7 1856.47 1399.17 1859.77Z" fill="#5A260D"/>
<path d="M1668.27 2049.88C1674.2 2053.44 1674.2 2056.4 1684.1 2053.44C1690.43 2047.75 1681.46 2044.55 1676.18 2041C1666.29 2032.12 1664.97 2047.91 1668.27 2049.88Z" fill="#5A260D"/>
<path d="M2687.27 2056.99C2693.2 2064.1 2693.2 2063.5 2703.1 2060.54C2709.43 2054.86 2708.37 2051.66 2703.1 2048.11C2693.2 2044.55 2684.89 2054.15 2687.27 2056.99Z" fill="#5A260D"/>
<path d="M1688.05 1847.34C1679.19 1852.64 1693.99 1853.85 1703.88 1850.89C1710.21 1845.2 1709.16 1842.01 1703.88 1838.45C1693.99 1829.57 1693.99 1843.78 1688.05 1847.34Z" fill="#9A502B"/>
<path d="M2592.29 1788.7C2596.25 1797.59 2594.27 1797 2604.16 1794.03C2610.5 1788.35 2603.5 1785.15 2598.23 1781.6C2588.33 1772.71 2590.82 1785.41 2592.29 1788.7Z" fill="#9A502B"/>
<path d="M2869.3 2003.69C2873.26 2012.57 2879.19 2015.53 2889.09 2012.57C2895.42 2006.89 2890.41 1998.36 2885.13 1994.8C2881.17 1980.59 2867.83 2000.39 2869.3 2003.69Z" fill="#9A502B"/>
<path d="M623.544 1721.19C618.795 1735.4 623.544 1733.03 633.437 1730.07C639.768 1724.39 638.713 1717.64 633.437 1714.08C623.544 1714.08 628.292 1706.98 623.544 1721.19Z" fill="#5A260D"/>
<path d="M398.966 1820.69C394.217 1834.9 404.902 1830.75 414.795 1827.79C421.127 1822.11 420.072 1815.36 414.795 1811.8C404.902 1811.8 403.715 1806.47 398.966 1820.69Z" fill="#5A260D"/>
<path d="M27.9726 1950.83C37.8658 1966.82 33.9085 1960.9 43.8017 1957.94C50.1334 1952.25 49.0781 1945.5 43.8017 1941.94C33.9085 1941.94 19.9468 1937.86 27.9726 1950.83Z" fill="#5A260D"/>
</svg>
